<svg width="131" height="52" viewBox="0 0 131 52" fill="none" xmlns="http://www.w3.org/2000/svg">
<path d="M3.28594 13.085H15.9209V16.095H3.28594V13.085ZM3.63594 26H0.135938V1.5H17.4259V4.545H3.63594V26ZM21.8627 26V0.0299985H25.2227V26H21.8627ZM43.1531 26V22.08L42.9781 21.345V14.66C42.9781 13.2367 42.5581 12.14 41.7181 11.37C40.9015 10.5767 39.6648 10.18 38.0081 10.18C36.9115 10.18 35.8381 10.3667 34.7881 10.74C33.7381 11.09 32.8515 11.5683 32.1281 12.175L30.7281 9.655C31.6848 8.885 32.8281 8.30167 34.1581 7.905C35.5115 7.485 36.9231 7.275 38.3931 7.275C40.9365 7.275 42.8965 7.89333 44.2731 9.13C45.6498 10.3667 46.3381 12.2567 46.3381 14.8V26H43.1531ZM37.0631 26.21C35.6865 26.21 34.4731 25.9767 33.4231 25.51C32.3965 25.0433 31.6031 24.4017 31.0431 23.585C30.4831 22.745 30.2031 21.8 30.2031 20.75C30.2031 19.7467 30.4365 18.8367 30.9031 18.02C31.3931 17.2033 32.1748 16.55 33.2481 16.06C34.3448 15.57 35.8148 15.325 37.6581 15.325H43.5381V17.74H37.7981C36.1181 17.74 34.9865 18.02 34.4031 18.58C33.8198 19.14 33.5281 19.8167 33.5281 20.61C33.5281 21.52 33.8898 22.255 34.6131 22.815C35.3365 23.3517 36.3398 23.62 37.6231 23.62C38.8831 23.62 39.9798 23.34 40.9131 22.78C41.8698 22.22 42.5581 21.4033 42.9781 20.33L43.6431 22.64C43.1998 23.7367 42.4181 24.6117 41.2981 25.265C40.1781 25.895 38.7665 26.21 37.0631 26.21ZM49.8611 26L57.8411 15.64L57.8061 17.355L50.2111 7.45H53.9561L59.7661 15.08H58.3311L64.1411 7.45H67.8161L60.1161 17.425L60.1511 15.64L68.2011 26H64.3861L58.2611 17.88L59.6261 18.09L53.6061 26H49.8611ZM75.7529 26V4.545H67.3529V1.5H87.6179V4.545H79.2179V26H75.7529ZM101.464 26V22.08L101.289 21.345V14.66C101.289 13.2367 100.869 12.14 100.029 11.37C99.212 10.5767 97.9753 10.18 96.3187 10.18C95.222 10.18 94.1487 10.3667 93.0987 10.74C92.0487 11.09 91.162 11.5683 90.4387 12.175L89.0387 9.655C89.9953 8.885 91.1387 8.30167 92.4687 7.905C93.822 7.485 95.2337 7.275 96.7037 7.275C99.247 7.275 101.207 7.89333 102.584 9.13C103.96 10.3667 104.649 12.2567 104.649 14.8V26H101.464ZM95.3737 26.21C93.997 26.21 92.7837 25.9767 91.7337 25.51C90.707 25.0433 89.9137 24.4017 89.3537 23.585C88.7937 22.745 88.5137 21.8 88.5137 20.75C88.5137 19.7467 88.747 18.8367 89.2137 18.02C89.7037 17.2033 90.4853 16.55 91.5587 16.06C92.6553 15.57 94.1253 15.325 95.9687 15.325H101.849V17.74H96.1087C94.4287 17.74 93.297 18.02 92.7137 18.58C92.1303 19.14 91.8387 19.8167 91.8387 20.61C91.8387 21.52 92.2003 22.255 92.9237 22.815C93.647 23.3517 94.6503 23.62 95.9337 23.62C97.1937 23.62 98.2903 23.34 99.2237 22.78C100.18 22.22 100.869 21.4033 101.289 20.33L101.954 22.64C101.51 23.7367 100.729 24.6117 99.6087 25.265C98.4887 25.895 97.077 26.21 95.3737 26.21ZM120.702 26.21C119.162 26.21 117.75 25.86 116.467 25.16C115.207 24.4367 114.192 23.375 113.422 21.975C112.675 20.575 112.302 18.825 112.302 16.725C112.302 14.625 112.663 12.875 113.387 11.475C114.133 10.075 115.137 9.025 116.397 8.325C117.68 7.625 119.115 7.275 120.702 7.275C122.522 7.275 124.132 7.67167 125.532 8.465C126.932 9.25833 128.04 10.3667 128.857 11.79C129.673 13.19 130.082 14.835 130.082 16.725C130.082 18.615 129.673 20.2717 128.857 21.695C128.04 23.1183 126.932 24.2267 125.532 25.02C124.132 25.8133 122.522 26.21 120.702 26.21ZM110.867 32.79V7.45H114.087V12.455L113.877 16.76L114.227 21.065V32.79H110.867ZM120.422 23.27C121.612 23.27 122.673 23.0017 123.607 22.465C124.563 21.9283 125.31 21.17 125.847 20.19C126.407 19.1867 126.687 18.0317 126.687 16.725C126.687 15.395 126.407 14.2517 125.847 13.295C125.31 12.315 124.563 11.5567 123.607 11.02C122.673 10.4833 121.612 10.215 120.422 10.215C119.255 10.215 118.193 10.4833 117.237 11.02C116.303 11.5567 115.557 12.315 114.997 13.295C114.46 14.2517 114.192 15.395 114.192 16.725C114.192 18.0317 114.46 19.1867 114.997 20.19C115.557 21.17 116.303 21.9283 117.237 22.465C118.193 23.0017 119.255 23.27 120.422 23.27ZM18.2009 51.075C17.4209 51.075 16.7209 50.905 16.1009 50.565C15.4909 50.215 15.0109 49.74 14.6609 49.14C14.3109 48.53 14.1359 47.835 14.1359 47.055C14.1359 46.265 14.3109 45.57 14.6609 44.97C15.0109 44.37 15.4909 43.9 16.1009 43.56C16.7209 43.22 17.4209 43.05 18.2009 43.05C18.8709 43.05 19.4759 43.18 20.0159 43.44C20.5559 43.7 20.9809 44.09 21.2909 44.61L20.4959 45.15C20.2259 44.75 19.8909 44.455 19.4909 44.265C19.0909 44.075 18.6559 43.98 18.1859 43.98C17.6259 43.98 17.1209 44.11 16.6709 44.37C16.2209 44.62 15.8659 44.975 15.6059 45.435C15.3459 45.895 15.2159 46.435 15.2159 47.055C15.2159 47.675 15.3459 48.215 15.6059 48.675C15.8659 49.135 16.2209 49.495 16.6709 49.755C17.1209 50.005 17.6259 50.13 18.1859 50.13C18.6559 50.13 19.0909 50.035 19.4909 49.845C19.8909 49.655 20.2259 49.365 20.4959 48.975L21.2909 49.515C20.9809 50.025 20.5559 50.415 20.0159 50.685C19.4759 50.945 18.8709 51.075 18.2009 51.075ZM29.6112 51.075C28.8512 51.075 28.1662 50.905 27.5562 50.565C26.9562 50.215 26.4812 49.74 26.1312 49.14C25.7812 48.53 25.6062 47.835 25.6062 47.055C25.6062 46.265 25.7812 45.57 26.1312 44.97C26.4812 44.37 26.9562 43.9 27.5562 43.56C28.1562 43.22 28.8412 43.05 29.6112 43.05C30.3912 43.05 31.0812 43.22 31.6812 43.56C32.2912 43.9 32.7662 44.37 33.1062 44.97C33.4562 45.57 33.6312 46.265 33.6312 47.055C33.6312 47.835 33.4562 48.53 33.1062 49.14C32.7662 49.74 32.2912 50.215 31.6812 50.565C31.0712 50.905 30.3812 51.075 29.6112 51.075ZM29.6112 50.13C30.1812 50.13 30.6862 50.005 31.1262 49.755C31.5662 49.495 31.9112 49.135 32.1612 48.675C32.4212 48.205 32.5512 47.665 32.5512 47.055C32.5512 46.435 32.4212 45.895 32.1612 45.435C31.9112 44.975 31.5662 44.62 31.1262 44.37C30.6862 44.11 30.1862 43.98 29.6262 43.98C29.0662 43.98 28.5662 44.11 28.1262 44.37C27.6862 44.62 27.3362 44.975 27.0762 45.435C26.8162 45.895 26.6862 46.435 26.6862 47.055C26.6862 47.665 26.8162 48.205 27.0762 48.675C27.3362 49.135 27.6862 49.495 28.1262 49.755C28.5662 50.005 29.0612 50.13 29.6112 50.13ZM41.0705 51.075C40.4205 51.075 39.8055 50.985 39.2255 50.805C38.6455 50.615 38.1905 50.38 37.8605 50.1L38.3405 49.26C38.6605 49.5 39.0705 49.71 39.5705 49.89C40.0705 50.06 40.5955 50.145 41.1455 50.145C41.8955 50.145 42.4355 50.03 42.7655 49.8C43.0955 49.56 43.2605 49.245 43.2605 48.855C43.2605 48.565 43.1655 48.34 42.9755 48.18C42.7955 48.01 42.5555 47.885 42.2555 47.805C41.9555 47.715 41.6205 47.64 41.2505 47.58C40.8805 47.52 40.5105 47.45 40.1405 47.37C39.7805 47.29 39.4505 47.175 39.1505 47.025C38.8505 46.865 38.6055 46.65 38.4155 46.38C38.2355 46.11 38.1455 45.75 38.1455 45.3C38.1455 44.87 38.2655 44.485 38.5055 44.145C38.7455 43.805 39.0955 43.54 39.5555 43.35C40.0255 43.15 40.5955 43.05 41.2655 43.05C41.7755 43.05 42.2855 43.12 42.7955 43.26C43.3055 43.39 43.7255 43.565 44.0555 43.785L43.5905 44.64C43.2405 44.4 42.8655 44.23 42.4655 44.13C42.0655 44.02 41.6655 43.965 41.2655 43.965C40.5555 43.965 40.0305 44.09 39.6905 44.34C39.3605 44.58 39.1955 44.89 39.1955 45.27C39.1955 45.57 39.2855 45.805 39.4655 45.975C39.6555 46.145 39.9005 46.28 40.2005 46.38C40.5105 46.47 40.8455 46.545 41.2055 46.605C41.5755 46.665 41.9405 46.74 42.3005 46.83C42.6705 46.91 43.0055 47.025 43.3055 47.175C43.6155 47.315 43.8605 47.52 44.0405 47.79C44.2305 48.05 44.3255 48.395 44.3255 48.825C44.3255 49.285 44.1955 49.685 43.9355 50.025C43.6855 50.355 43.3155 50.615 42.8255 50.805C42.3455 50.985 41.7605 51.075 41.0705 51.075ZM59.2697 43.05C59.9097 43.05 60.4647 43.175 60.9347 43.425C61.4147 43.665 61.7847 44.035 62.0447 44.535C62.3147 45.035 62.4497 45.665 62.4497 46.425V51H61.3847V46.53C61.3847 45.7 61.1847 45.075 60.7847 44.655C60.3947 44.225 59.8397 44.01 59.1197 44.01C58.5797 44.01 58.1097 44.125 57.7097 44.355C57.3197 44.575 57.0147 44.9 56.7947 45.33C56.5847 45.75 56.4797 46.26 56.4797 46.86V51H55.4147V46.53C55.4147 45.7 55.2147 45.075 54.8147 44.655C54.4147 44.225 53.8547 44.01 53.1347 44.01C52.6047 44.01 52.1397 44.125 51.7397 44.355C51.3397 44.575 51.0297 44.9 50.8097 45.33C50.5997 45.75 50.4947 46.26 50.4947 46.86V51H49.4297V43.125H50.4497V45.255L50.2847 44.88C50.5247 44.31 50.9097 43.865 51.4397 43.545C51.9797 43.215 52.6147 43.05 53.3447 43.05C54.1147 43.05 54.7697 43.245 55.3097 43.635C55.8497 44.015 56.1997 44.59 56.3597 45.36L55.9397 45.195C56.1697 44.555 56.5747 44.04 57.1547 43.65C57.7447 43.25 58.4497 43.05 59.2697 43.05ZM71.8329 51.075C71.0129 51.075 70.2929 50.905 69.6729 50.565C69.0529 50.215 68.5679 49.74 68.2179 49.14C67.8679 48.53 67.6929 47.835 67.6929 47.055C67.6929 46.275 67.8579 45.585 68.1879 44.985C68.5279 44.385 68.9879 43.915 69.5679 43.575C70.1579 43.225 70.8179 43.05 71.5479 43.05C72.2879 43.05 72.9429 43.22 73.5129 43.56C74.0929 43.89 74.5479 44.36 74.8779 44.97C75.2079 45.57 75.3729 46.265 75.3729 47.055C75.3729 47.105 75.3679 47.16 75.3579 47.22C75.3579 47.27 75.3579 47.325 75.3579 47.385H68.5029V46.59H74.7879L74.3679 46.905C74.3679 46.335 74.2429 45.83 73.9929 45.39C73.7529 44.94 73.4229 44.59 73.0029 44.34C72.5829 44.09 72.0979 43.965 71.5479 43.965C71.0079 43.965 70.5229 44.09 70.0929 44.34C69.6629 44.59 69.3279 44.94 69.0879 45.39C68.8479 45.84 68.7279 46.355 68.7279 46.935V47.1C68.7279 47.7 68.8579 48.23 69.1179 48.69C69.3879 49.14 69.7579 49.495 70.2279 49.755C70.7079 50.005 71.2529 50.13 71.8629 50.13C72.3429 50.13 72.7879 50.045 73.1979 49.875C73.6179 49.705 73.9779 49.445 74.2779 49.095L74.8779 49.785C74.5279 50.205 74.0879 50.525 73.5579 50.745C73.0379 50.965 72.4629 51.075 71.8329 51.075ZM83.1807 51.075C82.4407 51.075 81.8707 50.875 81.4707 50.475C81.0707 50.075 80.8707 49.51 80.8707 48.78V41.385H81.9357V48.72C81.9357 49.18 82.0507 49.535 82.2807 49.785C82.5207 50.035 82.8607 50.16 83.3007 50.16C83.7707 50.16 84.1607 50.025 84.4707 49.755L84.8457 50.52C84.6357 50.71 84.3807 50.85 84.0807 50.94C83.7907 51.03 83.4907 51.075 83.1807 51.075ZM79.4607 44.01V43.125H84.3357V44.01H79.4607ZM89.9344 51V43.125H90.9994V51H89.9344ZM90.4744 41.385C90.2544 41.385 90.0694 41.31 89.9194 41.16C89.7694 41.01 89.6944 40.83 89.6944 40.62C89.6944 40.41 89.7694 40.235 89.9194 40.095C90.0694 39.945 90.2544 39.87 90.4744 39.87C90.6944 39.87 90.8794 39.94 91.0294 40.08C91.1794 40.22 91.2544 40.395 91.2544 40.605C91.2544 40.825 91.1794 41.01 91.0294 41.16C90.8894 41.31 90.7044 41.385 90.4744 41.385ZM100.383 51.075C99.6027 51.075 98.9027 50.905 98.2827 50.565C97.6727 50.215 97.1927 49.74 96.8427 49.14C96.4927 48.53 96.3177 47.835 96.3177 47.055C96.3177 46.265 96.4927 45.57 96.8427 44.97C97.1927 44.37 97.6727 43.9 98.2827 43.56C98.9027 43.22 99.6027 43.05 100.383 43.05C101.053 43.05 101.658 43.18 102.198 43.44C102.738 43.7 103.163 44.09 103.473 44.61L102.678 45.15C102.408 44.75 102.073 44.455 101.673 44.265C101.273 44.075 100.838 43.98 100.368 43.98C99.8077 43.98 99.3027 44.11 98.8527 44.37C98.4027 44.62 98.0477 44.975 97.7877 45.435C97.5277 45.895 97.3977 46.435 97.3977 47.055C97.3977 47.675 97.5277 48.215 97.7877 48.675C98.0477 49.135 98.4027 49.495 98.8527 49.755C99.3027 50.005 99.8077 50.13 100.368 50.13C100.838 50.13 101.273 50.035 101.673 49.845C102.073 49.655 102.408 49.365 102.678 48.975L103.473 49.515C103.163 50.025 102.738 50.415 102.198 50.685C101.658 50.945 101.053 51.075 100.383 51.075ZM110.83 51.075C110.18 51.075 109.565 50.985 108.985 50.805C108.405 50.615 107.95 50.38 107.62 50.1L108.1 49.26C108.42 49.5 108.83 49.71 109.33 49.89C109.83 50.06 110.355 50.145 110.905 50.145C111.655 50.145 112.195 50.03 112.525 49.8C112.855 49.56 113.02 49.245 113.02 48.855C113.02 48.565 112.925 48.34 112.735 48.18C112.555 48.01 112.315 47.885 112.015 47.805C111.715 47.715 111.38 47.64 111.01 47.58C110.64 47.52 110.27 47.45 109.9 47.37C109.54 47.29 109.21 47.175 108.91 47.025C108.61 46.865 108.365 46.65 108.175 46.38C107.995 46.11 107.905 45.75 107.905 45.3C107.905 44.87 108.025 44.485 108.265 44.145C108.505 43.805 108.855 43.54 109.315 43.35C109.785 43.15 110.355 43.05 111.025 43.05C111.535 43.05 112.045 43.12 112.555 43.26C113.065 43.39 113.485 43.565 113.815 43.785L113.35 44.64C113 44.4 112.625 44.23 112.225 44.13C111.825 44.02 111.425 43.965 111.025 43.965C110.315 43.965 109.79 44.09 109.45 44.34C109.12 44.58 108.955 44.89 108.955 45.27C108.955 45.57 109.045 45.805 109.225 45.975C109.415 46.145 109.66 46.28 109.96 46.38C110.27 46.47 110.605 46.545 110.965 46.605C111.335 46.665 111.7 46.74 112.06 46.83C112.43 46.91 112.765 47.025 113.065 47.175C113.375 47.315 113.62 47.52 113.8 47.79C113.99 48.05 114.085 48.395 114.085 48.825C114.085 49.285 113.955 49.685 113.695 50.025C113.445 50.355 113.075 50.615 112.585 50.805C112.105 50.985 111.52 51.075 110.83 51.075Z" fill="#5E5E5E"/>
</svg>
