<svg width="291" height="77" viewBox="0 0 291 77" fill="none" xmlns="http://www.w3.org/2000/svg">
<path d="M25.0668 19.0828C25.9012 20.9032 27.1907 22.7237 30.8317 25.2269C31.6661 25.7579 32.5763 26.9715 31.8936 28.5644C31.211 30.1573 29.9214 32.5088 30.68 33.419C31.4385 34.3293 34.1692 34.7844 36.4448 33.8742C36.4448 33.8742 36.8999 35.3154 37.7343 36.1498C37.7343 36.1498 37.3551 36.9083 36.0656 36.529C36.0656 36.529 36.5207 37.6668 35.9138 38.9563C35.9138 38.9563 34.3968 38.7288 33.79 37.3634C33.79 37.3634 33.1831 38.4254 31.9695 38.8046C31.9695 38.8046 30.9834 38.2736 31.2109 36.3015C31.2109 36.3015 30.4524 38.0461 28.2527 38.3495C28.2527 38.3495 26.9632 36.7566 28.6319 34.5568C28.6319 34.5568 27.4183 35.6188 25.2185 35.0878C25.2185 35.0878 24.8393 33.95 26.8115 32.4329C26.8115 32.4329 24.6117 32.3571 23.7015 30.4608C23.7015 30.4608 24.6117 29.323 26.9632 29.5505C26.9632 29.5505 24.8393 29.0954 24.3842 26.5164C24.3842 26.5164 25.9012 25.5303 28.4044 27.1232C28.4044 27.1232 27.9493 26.2888 26.9632 25.5303C25.9012 24.6959 24.6876 22.4203 25.0668 19.0828Z" fill="#1928DC"/>
<path d="M34.0936 44.8717C33.7901 44.4165 33.5626 44.0373 33.335 43.5822C33.7143 46.6921 33.866 48.816 35.5348 50.7882C35.5348 50.7882 36.5209 49.4229 35.914 46.1612C35.6106 46.0853 35.3072 45.9336 35.0038 45.706C35.0038 45.706 35.3831 47.0714 35.1555 48.3609C35.1555 48.4368 34.5487 48.0575 34.0936 44.8717Z" fill="#1928DC"/>
<path d="M31.1334 44.5686C30.9058 44.341 30.5266 43.8101 30.3748 43.4308C30.2231 45.2513 29.768 50.03 31.3609 51.4712C31.3609 51.4712 32.4229 50.6368 32.878 43.7342C32.6504 44.1135 32.2712 44.5686 32.0436 44.7961C32.0436 44.7961 32.2712 46.9959 31.5126 48.5888C31.4368 48.513 30.6783 47.9061 31.1334 44.5686Z" fill="#1928DC"/>
<path d="M27.3418 48.2096C28.7072 46.6167 29.0864 41.7621 29.0864 41.7621C29.2381 41.6104 29.4657 41.5345 29.6174 41.3828C29.6933 41.307 29.7691 41.2311 29.845 41.1553C29.845 41.307 29.845 41.5345 29.845 41.6862C29.6174 44.5687 29.3899 47.6028 28.5555 49.044C27.6452 50.4852 26.0523 51.2438 26.0523 51.2438C24.5352 48.513 26.3557 44.8721 27.9486 42.3689C28.1003 42.2931 28.3279 42.2172 28.5555 42.1414C27.9486 44.1135 26.9626 46.3891 27.3418 48.2096Z" fill="#1928DC"/>
<path d="M23.5489 39.8659C23.5489 40.1693 23.6248 40.3969 23.6248 40.5486C23.6248 40.6244 23.6248 40.7003 23.7006 40.7761C22.4111 42.0656 21.5009 43.2034 19.6045 45.8583C17.7082 48.5132 14.6741 48.589 14.6741 48.589C14.9775 46.4651 15.5085 44.7964 17.1772 42.9759C18.7702 41.1554 20.8182 39.4866 22.3353 38.4247C22.7145 38.5764 23.2455 38.7281 23.8523 38.6522C23.9282 38.6522 23.9282 38.6522 24.004 38.6522C23.7765 38.8798 23.7006 39.1832 23.6248 39.4108C22.487 40.0935 19.1494 41.7622 17.7841 44.4929C17.8599 44.4171 19.908 43.7344 23.5489 39.8659Z" fill="#1928DC"/>
<path d="M21.1977 37.2104L21.3494 36.9828C21.4253 36.907 21.4253 36.8311 21.5011 36.7552C20.2875 37.2104 15.888 38.8791 14.4468 39.6377C13.0055 40.3962 10.9575 42.065 9.8197 45.4784C9.8197 45.4784 12.778 45.7818 15.2053 43.7338C17.6326 41.6857 20.515 38.8791 21.7287 37.9689C21.577 37.8172 21.5011 37.7413 21.4253 37.6655C21.4253 37.6655 18.0877 40.6238 14.5985 41.8374C14.5985 41.8374 15.357 40.4721 16.7224 39.486C18.467 38.2723 19.6806 37.893 21.1977 37.2104Z" fill="#1928DC"/>
<path d="M18.6951 35.1622C18.771 35.0105 18.771 34.9346 18.8468 34.8588C17.4056 35.1622 13.7647 35.6173 12.1717 36.0724C10.5788 36.6034 7.62054 37.7412 5.87592 41.0787C5.87592 41.0787 8.45492 41.8373 13.2337 39.5617C18.0124 37.2861 19.5295 36.831 20.5156 36.6034C19.7571 36.5275 19.2261 36.3 18.9985 36.1483C17.1022 36.9827 14.5232 38.0446 11.9442 38.0446C11.9442 38.0446 13.2337 37.1344 14.5232 36.6034C15.8885 36.0724 17.4815 35.4656 18.6951 35.1622Z" fill="#1928DC"/>
<path d="M18.7694 32.8117C19.2245 33.0392 19.6038 33.1151 20.2106 33.1909C19.9072 33.4185 19.5279 33.646 19.3003 34.0253C17.6316 34.4804 14.6733 35.0114 9.97039 35.3907C5.19163 35.7699 2.68848 34.8597 2.68848 34.8597C4.35725 33.8736 7.01211 32.8117 8.83259 32.4324C10.6531 32.0531 15.356 32.129 17.404 31.8256C17.404 31.8256 17.7074 32.0531 18.0867 32.2807C16.3421 32.4324 12.6253 32.5841 10.7289 33.5702C10.6531 33.646 14.1423 34.177 18.7694 32.8117Z" fill="#1928DC"/>
<path d="M18.4665 30.0803C18.6941 29.9286 18.9975 29.7769 19.3768 29.701C16.9495 28.9425 13.6119 27.8047 8.68145 27.5013C5.04049 27.2737 2.38562 27.5013 1.02026 27.8047C1.02026 27.8047 4.35782 30.1561 8.15048 30.9905C11.9431 31.8249 15.0531 31.2939 17.3287 31.2939C17.4804 31.0664 17.6321 30.8388 17.9356 30.5354C15.2807 30.5354 10.8812 29.8527 9.28828 29.3217C9.21243 29.3217 13.0051 28.4874 18.4665 30.0803Z" fill="#1928DC"/>
<path d="M18.3908 27.1977C18.3908 27.2736 18.6942 28.6389 20.2872 29.3975C16.8738 27.8804 10.1987 27.046 6.63357 25.529C1.77896 23.4809 0.868713 20.9778 0.868713 20.9778C5.04064 20.9019 8.45404 21.888 11.1089 22.7224C14.143 23.6326 18.846 25.3772 20.5147 26.1358C19.9079 26.1358 19.2252 26.3633 18.6942 26.7426C16.4186 25.8324 15.3567 25.5289 13.3087 24.9221C11.6399 24.467 10.4262 24.3911 9.44014 24.2394C9.44014 24.2394 10.8814 25.2255 13.2328 25.9841C15.5084 26.7426 16.4945 26.8185 18.3908 27.1977Z" fill="#1928DC"/>
<path d="M18.1633 23.4823C18.315 23.7099 18.6942 24.3167 18.846 24.5443C13.4604 23.634 7.54382 19.6138 5.72334 17.1106C3.90286 14.6075 4.43382 10.8148 4.43382 10.8148C6.17845 11.1941 10.047 14.4558 11.0331 15.5177C12.0192 16.5038 15.0533 19.4621 17.1013 21.055L17.784 22.9513C15.9635 21.5101 13.9155 19.9172 12.5501 18.9311C11.564 18.1726 10.047 17.1106 8.52991 16.5797C8.52991 16.5797 9.89527 18.4001 11.0331 19.3104C12.3226 20.3723 13.6879 21.2067 14.7499 21.8135C15.736 22.2687 16.1911 22.5721 18.1633 23.4823Z" fill="#1928DC"/>
<path d="M33.3336 38.4997C33.4853 38.348 33.637 38.1963 33.7887 38.1205C34.0162 38.4239 34.8506 39.4858 35.3058 40.4719C35.6092 41.3822 35.9126 42.52 36.1401 43.2027C36.2918 43.8853 36.8228 45.3265 37.0504 45.7817C37.0504 45.7817 35.7609 45.9334 34.7748 44.7956C33.7887 43.6578 33.4853 42.5958 33.3336 41.458C33.106 40.6236 33.1819 39.41 33.3336 38.4997Z" fill="#1928DC"/>
<path d="M31.2079 38.7288C31.4354 39.0322 31.663 39.1839 31.7388 39.1839L31.8906 39.2597L32.0423 39.1839C32.194 39.108 32.3457 39.108 32.4974 39.0322C32.6491 39.5631 32.7249 39.7907 32.8008 40.2458C32.8767 40.8527 32.9525 41.7629 32.7249 42.5214C32.4215 43.4317 31.8906 44.0385 31.5871 44.4178C31.5871 44.4178 30.7528 43.5075 30.5252 42.6731C30.2976 41.8387 30.1459 40.9285 30.5252 39.9424C30.6769 39.4873 30.9803 38.9563 31.2079 38.7288Z" fill="#1928DC"/>
<path d="M28.3295 38.8047C29.2398 38.653 29.8466 38.3496 30.3776 37.9703C30.4534 38.2738 30.681 38.7289 30.5293 39.2598C30.3776 39.8667 29.9983 40.4735 29.3915 41.0045C28.4812 41.6871 27.3434 42.3698 26.0539 42.1423C25.9781 42.1423 25.6747 41.232 28.3295 38.8047Z" fill="#1928DC"/>
<path d="M27.2671 37.1349C27.343 37.9693 27.7981 38.5761 27.7981 38.5761C27.4947 38.9554 26.3569 40.8517 24.0813 40.5483C24.0813 40.5483 23.4745 39.2588 24.9915 38.2727C26.1293 37.5142 26.5844 37.4383 27.2671 37.1349Z" fill="#1928DC"/>
<path d="M27.4944 35.5419C26.8875 35.6936 26.0531 35.7695 25.1429 35.5419L24.9153 35.4661L24.8395 35.2385C23.6258 36.2246 22.2605 36.3763 21.8054 37.2107C21.8054 37.2107 22.4122 38.2727 23.9293 38.121C25.4463 37.9692 26.5841 37.2107 27.4185 36.2246C27.3426 35.9971 27.4185 35.7695 27.4944 35.5419Z" fill="#1928DC"/>
<path d="M24.837 34.1766C25.0645 33.8732 25.2162 33.3422 25.6714 32.8871C24.6853 32.7354 23.775 32.7354 22.5614 32.8871C21.1202 33.1905 19.679 33.4939 18.9963 35.6178C18.9963 35.6178 19.9065 36.3763 21.5753 36.0729C22.9406 35.7695 24.1543 35.1627 24.837 34.1766Z" fill="#1928DC"/>
<path d="M24.23 31.8255C23.8508 31.5221 23.5473 31.1428 23.3198 30.6118L23.1681 30.3084C21.9544 29.7774 20.6649 29.5499 19.4513 30.005C18.2376 30.4601 17.8583 30.9911 17.5549 31.4462C17.5549 31.4462 18.9203 32.584 20.5132 32.6599C22.182 32.8116 23.6232 32.3565 24.23 31.8255Z" fill="#1928DC"/>
<path d="M24.6102 29.3219C24.8377 29.2461 25.0653 29.1702 25.2928 29.0944C24.7619 28.6393 24.2309 27.8807 23.9275 26.8188C23.3965 26.9705 22.0312 26.9705 21.4243 26.7429C20.8175 26.5154 19.6797 26.5154 18.7695 27.1222C18.7695 27.1222 19.0729 28.7151 21.1209 29.2461C23.169 29.7771 23.8516 29.6254 24.6102 29.3219Z" fill="#1928DC"/>
<path d="M23.9279 26.2885L24.2313 26.1368C24.2313 26.1368 24.6864 25.8334 25.5208 25.7575C24.8381 25.3024 23.3211 23.937 22.1833 23.3302C20.9696 22.6475 18.9974 21.7373 17.9355 21.5856C17.9355 21.5856 18.9216 24.0887 19.9835 25.0748C21.1213 26.2126 21.8799 26.5919 23.9279 26.2885Z" fill="#1928DC"/>
<path d="M25.9767 25.1507C25.5215 24.5439 25.0664 23.6336 24.8389 22.6475C24.6113 21.8131 24.0803 19.6893 23.7769 19.1583C23.4735 18.6273 22.3357 16.731 20.136 16.1241C20.136 16.1241 19.5291 18.5514 20.6669 20.5236C21.5772 22.1924 23.5494 23.937 25.9767 25.1507Z" fill="#1928DC"/>
<path d="M38.1897 36.604C38.4931 36.9074 38.6448 37.0591 39.1758 37.2867C39.1758 37.2867 39.8584 38.652 39.0241 40.2449C38.1897 41.8379 37.4311 43.5066 37.1277 44.4169C37.1277 44.4169 36.6726 44.341 36.1416 41.8379C35.7624 40.0932 35.3831 39.714 34.928 39.1071C35.3831 39.3347 35.8382 39.4105 35.8382 39.4105L36.2175 39.4864L36.3692 39.183C36.6726 38.5762 36.7485 38.0452 36.7485 37.5901C36.7485 37.4384 36.7485 37.2867 36.7485 37.135C37.507 37.135 37.9621 36.7557 38.1138 36.5281C38.1138 36.5281 38.1138 36.5281 38.1138 36.4523L38.1897 36.604Z" fill="#1928DC"/>
<path d="M19.454 17.1097C19.454 17.3373 19.454 17.6407 19.454 17.8682L19.5298 18.4751C18.2403 16.8063 16.6474 14.8341 15.2062 12.9378C14.2201 11.6483 13.3099 10.8897 12.3996 10.2829C13.234 12.6344 14.6752 14.4548 15.6613 15.4409C16.6474 16.3512 18.1645 17.9441 19.6057 18.9302L19.7574 19.3853C19.8332 19.8404 20.0608 20.2955 20.2884 20.6748C20.5918 21.2816 21.0469 21.8126 21.5779 22.4194C21.1227 22.1919 20.6676 21.9643 20.2125 21.8126L19.7574 21.6609C15.813 19.537 11.8686 15.2134 10.2757 12.1792C8.68281 9.14511 9.36548 5.65585 9.74475 3.75952C11.5652 5.27659 14.1442 8.31072 15.282 9.90364C16.5715 11.9517 18.392 14.7582 19.454 17.1097Z" fill="#1928DC"/>
<path d="M75.0539 30.0803C74.8263 29.9286 74.5229 29.7769 74.1436 29.701C76.5709 28.9425 79.9085 27.8047 84.8389 27.5013C88.4799 27.2737 91.1348 27.5013 92.5001 27.8047C92.5001 27.8047 89.1626 30.1561 85.3699 30.9905C81.5773 31.8249 78.4673 31.2939 76.1917 31.2939C76.04 31.0664 75.8883 30.8388 75.5848 30.5354C78.2397 30.5354 82.6392 29.8527 84.2321 29.3217C84.308 29.3217 80.4394 28.4874 75.0539 30.0803Z" fill="#1928DC"/>
<path d="M75.0526 27.1977C75.0526 27.2736 74.7492 28.6389 73.1563 29.3975C76.5697 27.8804 83.2447 27.046 86.8099 25.529C91.6645 23.4809 92.5747 20.9778 92.5747 20.9778C88.4028 20.9019 84.9894 21.888 82.3345 22.7224C79.3004 23.6326 74.5975 25.3772 72.9287 26.1358C73.5355 26.1358 74.2182 26.3633 74.7492 26.7426C77.0248 25.8324 78.0867 25.5289 80.1348 24.9221C81.8035 24.467 83.0172 24.3911 84.0033 24.2394C84.0033 24.2394 82.5621 25.2255 80.2106 25.9841C77.935 26.7426 76.9489 26.8185 75.0526 27.1977Z" fill="#1928DC"/>
<path d="M75.2835 23.4822C75.1318 23.7098 74.7525 24.3166 74.6008 24.5441C79.9864 23.6339 85.903 19.6137 87.7235 17.1105C89.5439 14.6074 89.013 10.8147 89.013 10.8147C87.2683 11.194 83.3998 14.4557 82.4137 15.5176C81.4276 16.5037 78.3935 19.462 76.3455 21.0549L75.6628 22.9512C77.4833 21.51 79.5313 19.9171 80.8967 18.931C81.8828 18.1725 83.3998 17.1105 84.9169 16.5795C84.9169 16.5795 83.5515 18.4 82.4137 19.3103C81.1242 20.3722 79.8347 21.2066 78.6969 21.8134C77.7867 22.2685 77.2557 22.572 75.2835 23.4822Z" fill="#1928DC"/>
<path d="M73.9906 17.1097C73.9906 17.3373 73.9906 17.6407 73.9906 17.8682L73.9147 18.4751C75.2043 16.8063 76.7972 14.8341 78.2384 12.9378C79.2245 11.6483 80.1347 10.8897 81.045 10.2829C80.2106 12.6344 78.7694 14.4548 77.7833 15.4409C76.7972 16.3512 75.2801 17.9441 73.8389 18.9302L73.6872 19.3853C73.6113 19.8404 73.3838 20.2955 73.1562 20.6748C72.8528 21.2816 72.3977 21.8126 71.8667 22.4194C72.3218 22.1919 72.777 21.9643 73.2321 21.8126L73.6872 21.6609C77.6316 19.537 81.5759 15.2134 83.1689 12.1792C84.7618 9.14511 84.0791 5.65585 83.6998 3.75952C81.8793 5.27659 79.3003 8.31072 78.1625 9.90364C76.873 11.9517 75.1284 14.7582 73.9906 17.1097Z" fill="#1928DC"/>
<path d="M24.535 41.0798C22.8662 42.7486 19.4528 46.3895 19.7562 50.3339C19.7562 50.3339 22.942 49.3478 24.3074 46.9964C25.5969 44.6449 26.4313 43.2037 26.9623 42.6727C26.583 42.7486 26.2796 42.7486 25.9003 42.6727L25.5969 42.5969C24.7625 44.0381 23.1696 46.4654 21.7284 47.3756C21.7284 47.3756 21.3491 45.4034 25.5969 41.4591C25.6728 41.3074 25.7486 41.0798 25.8245 40.9281C25.5211 41.004 25.0659 41.0798 24.535 41.0798Z" fill="#1928DC"/>
<path d="M68.3781 19.0798C67.5437 20.9003 66.2542 22.7208 62.6132 25.2239C61.7788 25.7549 60.8686 26.9686 61.5513 28.5615C62.234 30.1544 63.5235 32.5059 62.7649 33.4161C62.0064 34.3263 59.2757 34.7815 57.0001 33.8712C57.0001 33.8712 56.545 35.3124 55.7106 36.1468C55.7106 36.1468 56.0898 36.9054 57.3794 36.5261C57.3794 36.5261 56.9242 37.6639 57.531 38.9534C57.531 38.9534 59.0481 38.7258 59.655 37.3605C59.655 37.3605 60.2618 38.4224 61.4754 38.8017C61.4754 38.8017 62.4615 38.2707 62.234 36.2985C62.234 36.2985 62.9925 38.0432 65.1922 38.3466C65.1922 38.3466 66.4817 36.7536 64.813 34.5539C64.813 34.5539 66.0266 35.6158 68.2264 35.0849C68.2264 35.0849 68.6056 33.9471 66.6334 32.43C66.6334 32.43 68.8332 32.3542 69.7434 30.4578C69.7434 30.4578 68.8332 29.32 66.4817 29.5476C66.4817 29.5476 68.6056 29.0925 69.0608 26.5135C69.0608 26.5135 67.5437 25.5274 65.1164 27.1203C65.1164 27.1203 65.5715 26.2859 66.5576 25.5274C67.5437 24.693 68.8332 22.4174 68.3781 19.0798Z" fill="#1928DC"/>
<path d="M59.4272 44.8697C59.7306 44.4146 59.9582 44.0353 60.1857 43.5802C59.8065 46.6902 59.6548 48.8141 57.986 50.7863C57.986 50.7863 56.9999 49.4209 57.6067 46.1592C57.9102 46.0834 58.2136 45.9317 58.517 45.7041C58.517 45.7041 58.1377 47.0695 58.3653 48.359C58.3653 48.4348 58.9721 48.0555 59.4272 44.8697Z" fill="#1928DC"/>
<path d="M62.3109 44.5674C62.5384 44.3398 62.9177 43.8088 63.0694 43.4296C63.2211 45.25 63.6762 50.0288 62.0833 51.47C62.0833 51.47 61.0213 50.6356 60.5662 43.733C60.7938 44.1122 61.1731 44.5674 61.4006 44.7949C61.4006 44.7949 61.1731 46.9947 61.9316 48.5876C62.0074 48.5117 62.8418 47.9049 62.3109 44.5674Z" fill="#1928DC"/>
<path d="M66.104 48.208C64.7386 46.6151 64.3594 41.7605 64.3594 41.7605C64.2077 41.6088 63.9801 41.5329 63.8284 41.3812C63.7526 41.3054 63.6767 41.2295 63.6008 41.1537C63.6008 41.3054 63.6008 41.533 63.6008 41.6847C63.8284 44.5671 64.056 47.6012 64.8903 49.0424C65.8006 50.4836 67.3935 51.2422 67.3935 51.2422C68.9106 48.5115 67.0901 44.8705 65.4972 42.3673C65.2696 42.2915 65.1179 42.2156 64.8903 42.1398C65.4972 44.112 66.5591 46.3876 66.104 48.208Z" fill="#1928DC"/>
<path d="M69.8972 39.8638C69.8972 40.1672 69.8213 40.3948 69.8213 40.5465C69.8213 40.6223 69.8213 40.6982 69.7455 40.7741C71.035 42.0636 71.9452 43.2014 73.8416 45.8562C75.7379 48.5111 78.772 48.5869 78.772 48.5869C78.4686 46.4631 77.9376 44.7943 76.2689 42.9738C74.676 41.1533 72.6279 39.4846 71.1108 38.4226C70.7316 38.5743 70.2006 38.726 69.5938 38.6502C69.5179 38.6502 69.5179 38.6502 69.4421 38.6502C69.6696 38.8777 69.7455 39.1811 69.8213 39.4087C70.9591 40.0914 74.2967 41.7602 75.662 44.4909C75.662 44.415 73.5382 43.7323 69.8972 39.8638Z" fill="#1928DC"/>
<path d="M72.3238 37.2094L72.1721 36.9818C72.0963 36.906 72.0963 36.8301 72.0204 36.7543C73.234 37.2094 77.6335 38.8782 79.0747 39.6367C80.516 40.3952 82.564 42.064 83.7018 45.4774C83.7018 45.4774 80.7435 45.7808 78.3162 43.7328C75.8889 41.6847 73.0065 38.8782 71.7928 37.9679C71.9446 37.8162 72.0204 37.7404 72.0963 37.6645C72.0963 37.6645 75.4338 40.6228 78.9231 41.8364C78.9231 41.8364 78.1645 40.4711 76.7991 39.485C75.0545 38.2713 73.765 37.8921 72.3238 37.2094Z" fill="#1928DC"/>
<path d="M74.8275 35.1612C74.7516 35.0095 74.7516 34.9336 74.6757 34.8578C76.117 35.1612 79.7579 35.6163 81.3508 36.0714C82.9437 36.6024 85.902 37.7402 87.6467 41.0778C87.6467 41.0778 85.0676 41.8363 80.2889 39.5607C75.5101 37.2851 73.9931 36.83 73.0828 36.6024C73.8414 36.5266 74.3723 36.299 74.5999 36.1473C76.4962 36.9817 79.0752 38.0436 81.6543 38.0436C81.6543 38.0436 80.3647 37.1334 79.0752 36.6024C77.5582 36.0714 75.9653 35.4646 74.8275 35.1612Z" fill="#1928DC"/>
<path d="M74.6756 32.809C74.2205 33.0365 73.8412 33.1124 73.2344 33.1882C73.5378 33.4158 73.917 33.6434 74.1446 34.0226C75.8134 34.4777 78.6958 35.0087 83.4746 35.388C88.2533 35.7673 90.7565 34.857 90.7565 34.857C89.0877 33.8709 86.4328 32.809 84.6124 32.4297C82.7919 32.0504 78.089 32.1263 76.0409 31.8229C76.0409 31.8229 75.7375 32.0504 75.3583 32.278C77.1029 32.4297 80.8197 32.5814 82.716 33.5675C82.8677 33.6434 79.3026 34.1743 74.6756 32.809Z" fill="#1928DC"/>
<path d="M60.1857 38.4974C60.034 38.3457 59.8823 38.194 59.7306 38.1182C59.503 38.4216 58.6687 39.4835 58.2135 40.4696C57.9101 41.3799 57.6067 42.5177 57.3792 43.2003C57.2275 43.883 56.6965 45.3242 56.3931 45.7793C56.3931 45.7793 57.6826 45.9311 58.6687 44.7933C59.6548 43.6555 59.9582 42.5935 60.1099 41.4557C60.3374 40.6213 60.2616 39.4077 60.1857 38.4974Z" fill="#1928DC"/>
<path d="M62.2312 38.7261C62.0036 39.0295 61.776 39.1812 61.7002 39.1812L61.5485 39.2571L61.3968 39.1812C61.2451 39.1053 61.0933 39.1053 60.9416 39.0295C60.7899 39.5605 60.7141 39.788 60.6382 40.2431C60.5624 40.85 60.4865 41.7602 60.7141 42.5187C61.0175 43.429 61.5485 44.0358 61.8519 44.4151C61.8519 44.4151 62.6863 43.5048 62.9897 42.6704C63.2172 41.8361 63.369 40.9258 62.9897 39.9397C62.7621 39.4846 62.4587 38.9536 62.2312 38.7261Z" fill="#1928DC"/>
<path d="M65.1932 38.8019C64.283 38.6502 63.6761 38.3468 63.1452 37.9675C63.0693 38.2709 62.8418 38.7261 62.9935 39.257C63.1452 39.8639 63.5245 40.4707 64.1313 41.0017C65.0415 41.6843 66.1793 42.367 67.4688 42.1395C67.4688 42.1395 67.7722 41.2292 65.1932 38.8019Z" fill="#1928DC"/>
<path d="M66.1769 37.1335C66.101 37.9679 65.6459 38.5748 65.6459 38.5748C65.9493 38.954 67.0871 40.8504 69.3627 40.5469C69.3627 40.5469 69.9696 39.2574 68.4525 38.2713C67.3905 37.5128 66.8596 37.437 66.1769 37.1335Z" fill="#1928DC"/>
<path d="M65.9516 35.5396C66.5584 35.6913 67.3928 35.7672 68.3031 35.5396L68.5306 35.4638L68.6065 35.2362C69.8201 36.2223 71.1855 36.374 71.6406 37.2084C71.6406 37.2084 71.0338 38.2703 69.5167 38.1186C67.9996 37.9669 66.8618 37.2084 66.0275 36.2223C66.1033 35.9947 66.0275 35.7672 65.9516 35.5396Z" fill="#1928DC"/>
<path d="M68.6057 34.1751C68.3781 33.8717 68.2264 33.3408 67.7713 32.8856C68.7574 32.7339 69.6676 32.7339 70.8813 32.8856C72.3225 33.189 73.7637 33.4925 74.4464 35.6163C74.4464 35.6163 73.5361 36.3749 71.8674 36.0715C70.502 35.7681 69.2884 35.1612 68.6057 34.1751Z" fill="#1928DC"/>
<path d="M69.2128 31.8232C69.5921 31.5198 69.8955 31.1405 70.1231 30.6095L70.2748 30.3061C71.4884 29.7751 72.7779 29.5476 73.9916 30.0027C75.2053 30.4578 75.5845 30.9888 75.8879 31.4439C75.8879 31.4439 74.5226 32.5817 72.9297 32.6576C71.3367 32.8093 69.8197 32.3541 69.2128 31.8232Z" fill="#1928DC"/>
<path d="M68.8348 29.3195C68.6072 29.2437 68.3797 29.1678 68.1521 29.0919C68.6831 28.6368 69.2141 27.8783 69.5175 26.8163C70.0484 26.9681 71.4138 26.9681 72.0206 26.7405C72.6274 26.5129 73.7652 26.5129 74.6755 27.1198C74.6755 27.1198 74.3721 28.7127 72.324 29.2436C70.3518 29.7746 69.5933 29.6229 68.8348 29.3195Z" fill="#1928DC"/>
<path d="M69.5908 26.2858L69.2874 26.1341C69.2874 26.1341 68.7564 25.8307 67.9979 25.7548C68.6805 25.2997 70.1976 23.9343 71.3354 23.3275C72.5491 22.6448 74.5212 21.7346 75.5832 21.5829C75.5832 21.5829 74.5971 24.086 73.5351 25.0721C72.3973 26.2099 71.563 26.5892 69.5908 26.2858Z" fill="#1928DC"/>
<path d="M67.5408 25.1479C67.996 24.5411 68.4511 23.6308 68.6786 22.6447C68.9062 21.8103 69.4372 19.6864 69.7406 19.1555C70.044 18.6245 71.1818 16.7282 73.3815 16.1213C73.3815 16.1213 73.9884 18.5486 72.8506 20.5208C71.8645 22.1896 69.9681 23.9342 67.5408 25.1479Z" fill="#1928DC"/>
<path d="M55.3322 36.6019C55.0288 36.9053 54.8771 37.057 54.3461 37.2846C54.3461 37.2846 53.6635 38.6499 54.4978 40.2429C55.3322 41.8358 56.0908 43.5046 56.3942 44.4148C56.3942 44.4148 56.8493 44.3389 57.3803 41.8358C57.7595 40.0912 58.1388 39.7119 58.5939 39.1051C58.1388 39.3326 57.6837 39.4085 57.6837 39.4085L57.3803 39.4843L57.2286 39.1809C56.9251 38.5741 56.8493 38.0431 56.8493 37.588C56.8493 37.4363 56.8493 37.2846 56.8493 37.1329C56.0908 37.1329 55.6357 36.7536 55.4839 36.5261C55.4839 36.5261 55.4839 36.526 55.4839 36.4502L55.3322 36.6019Z" fill="#1928DC"/>
<path d="M68.9099 41.077C70.5787 42.7458 73.9921 46.3867 73.6887 50.3311C73.6887 50.3311 70.5028 49.345 69.1375 46.9936C67.848 44.6421 67.0136 43.2009 66.4826 42.6699C66.8619 42.7458 67.1653 42.7458 67.5445 42.6699L67.848 42.5941C68.6823 44.0353 70.2753 46.4626 71.7165 47.3728C71.7165 47.3728 72.0957 45.4006 67.848 41.4563C67.7721 41.3046 67.6963 41.077 67.6204 40.9253C67.9238 41.0011 68.3789 41.077 68.9099 41.077Z" fill="#1928DC"/>
<path d="M44.256 9.37179C44.256 9.06838 45.3938 8.84082 46.7592 8.84082C48.1246 8.84082 49.2624 9.06838 49.2624 9.37179C49.2624 9.67521 48.1246 9.90277 46.7592 9.90277C45.3938 9.90277 44.256 9.67521 44.256 9.37179Z" fill="#1928DC"/>
<path d="M35.7622 12.2548C35.7622 12.1031 36.4449 11.9514 37.3551 11.9514C38.2654 11.9514 38.948 12.1031 38.948 12.2548C38.948 12.4065 38.2654 12.5582 37.3551 12.5582C36.4449 12.5582 35.7622 12.4065 35.7622 12.2548Z" fill="#1928DC"/>
<path d="M47.216 10.5101C47.216 10.8135 46.9884 10.9652 46.7608 10.9652C46.4574 10.9652 46.2299 10.7376 46.2299 10.5101C46.2299 10.2066 46.4574 10.0549 46.7608 10.0549C46.9884 10.0549 47.216 10.2825 47.216 10.5101Z" fill="#1928DC"/>
<path d="M44.0283 8.84055C43.1939 6.86837 42.663 5.42715 42.663 4.89618C42.663 4.59277 43.0422 4.36521 43.3456 4.28935C43.6491 4.2135 43.9525 4.13765 44.18 4.36521C44.6351 4.66862 45.0144 7.39934 45.1661 8.46128C44.7869 8.53714 44.5593 8.61299 44.0283 8.84055Z" fill="#1928DC"/>
<path d="M45.5465 8.38627C45.7741 8.38627 46.0016 8.38627 46.2292 8.31042C46.0775 7.24847 45.6982 5.50385 45.5465 4.74532C45.319 4.06264 45.0914 3.53166 44.5604 3.45581C44.5604 3.45581 44.9397 4.4419 45.0914 5.42799C45.319 6.48994 45.4707 7.47603 45.5465 8.38627Z" fill="#1928DC"/>
<path d="M44.3316 11.8756C43.0421 12.6341 41.6009 12.4824 41.6009 12.4824C41.9043 11.9514 42.1319 11.4963 42.9663 10.9653C43.8006 10.3585 45.0902 10.2826 45.5453 10.3585C45.4694 10.6619 44.9384 11.4963 44.3316 11.8756ZM42.9663 11.9514C43.8765 11.7239 44.7867 10.7378 44.7867 10.7378C43.3455 10.9653 42.9663 11.9514 42.9663 11.9514Z" fill="#1928DC"/>
<path d="M35.3827 12.6335C35.3827 12.6335 36.9756 13.2403 38.5685 13.1644C40.1614 13.0886 43.1197 13.0127 44.03 12.5576C44.03 12.5576 43.8783 13.1644 43.1197 13.4679C43.1197 13.4679 43.499 13.4679 43.8783 13.8471C43.8783 13.8471 43.6507 14.3022 42.968 14.6057C42.968 14.6057 44.1817 15.8952 45.4712 15.7435C45.4712 15.7435 44.8644 16.502 43.5748 16.1986C42.2853 15.8952 41.8302 15.1366 41.6027 14.9091C41.6027 14.9091 41.7544 15.5917 41.6785 15.8952C41.6785 15.8952 41.0717 15.8952 40.6166 15.2883C40.6166 15.2883 40.92 15.8952 40.9958 16.3503C40.9958 16.3503 40.6166 16.4261 40.0097 15.971C40.0097 15.971 40.1615 16.3503 40.1615 16.7295C40.1615 16.7295 38.6444 16.2744 37.8859 15.5159C37.8859 15.5159 37.8859 15.971 37.8859 16.2744C37.9617 16.3503 35.5344 16.1227 35.3827 12.6335ZM39.5546 13.9988V13.923C38.2651 14.0747 36.8239 13.9988 36.8239 13.9988C36.8998 14.4539 37.1273 14.8332 37.4307 15.0608C37.5066 13.9988 39.5546 13.9988 39.5546 13.9988Z" fill="#1928DC"/>
<path d="M35.0029 12.8617C35.0788 13.6202 35.2305 14.3788 35.5339 14.9098C35.5339 14.9098 34.6236 14.2271 34.3961 13.6202C34.1685 13.0134 34.0927 12.5583 35.0029 12.8617Z" fill="#1928DC"/>
<path d="M35.4567 15.2893C36.0635 15.5927 36.6703 16.2754 36.6703 16.2754C35.6842 16.5029 35.305 16.7305 35.305 16.7305C33.4845 15.441 31.9674 16.7305 31.9674 16.7305C30.9813 16.1995 30.7538 14.8341 31.2847 14.0756C31.7399 13.3929 32.8777 13.4688 33.4086 13.6205C33.7121 14.6824 34.8498 14.9859 35.4567 15.2893ZM33.1052 15.7444C33.3328 15.7444 33.4845 15.5927 33.4845 15.3651C33.4845 15.1376 33.3328 14.9859 33.1052 14.9859C32.8777 14.9859 32.726 15.1376 32.726 15.3651C32.726 15.5168 32.9535 15.7444 33.1052 15.7444Z" fill="#1928DC"/>
<path d="M36.8237 16.4263C36.8237 16.4263 37.5064 17.3365 37.9615 17.7158C37.9615 17.7158 35.5342 17.7158 34.9274 19.8397C34.9274 19.8397 34.093 18.5502 34.6998 17.7158C35.3066 16.8055 35.9134 16.6538 36.8237 16.4263Z" fill="#1928DC"/>
<path d="M39.4755 16.9569C39.4755 16.9569 40.2341 17.1845 40.5375 17.2603C40.5375 17.2603 40.5375 16.8052 40.5375 16.5776C40.765 16.6535 41.0684 16.7293 41.296 16.7293C41.296 16.7293 42.0545 18.474 42.7372 19.2325C42.7372 19.2325 42.7372 19.6118 42.4338 20.2186C42.4338 20.2186 41.9787 19.1567 41.2201 18.3223C40.765 17.8671 40.4616 17.6396 39.4755 16.9569Z" fill="#1928DC"/>
<path d="M37.4291 16.5776C37.6567 16.6535 38.9462 17.0328 39.553 17.4879C40.3116 18.0188 40.8425 18.7015 40.7667 19.7635C40.7667 19.7635 40.1599 18.9291 39.4772 18.5498C38.9462 18.2464 37.9601 17.3362 37.4291 16.5776Z" fill="#1928DC"/>
<path d="M37.4294 8.61267C37.657 8.61267 38.1121 8.68852 38.1121 9.06779C38.1121 9.44706 37.5053 10.3573 37.3536 10.7366C37.2019 10.3573 36.595 9.44706 36.595 9.06779C36.595 8.68852 37.0501 8.61267 37.2777 8.61267H37.4294Z" fill="#1928DC"/>
<path d="M36.9006 11.5719C36.8247 11.0409 36.5972 9.67555 36.2179 9.37214C35.9145 9.06873 35.4594 9.06873 35.2318 9.06873C35.0042 9.06873 34.7767 9.29629 34.8525 9.5997C34.9284 9.90311 35.9903 11.4202 36.0662 11.6477C36.3696 11.5719 36.3696 11.6477 36.9006 11.5719Z" fill="#1928DC"/>
<path d="M37.8086 11.5719C37.8844 11.0409 38.112 9.67555 38.4913 9.37214C38.7947 9.06873 39.2498 9.06873 39.4774 9.06873C39.7049 9.06873 39.9325 9.29629 39.8566 9.5997C39.7808 9.90311 38.7188 11.4202 38.643 11.6477C38.3396 11.5719 38.4154 11.6477 37.8086 11.5719Z" fill="#1928DC"/>
<path d="M38.4917 6.79313H37.6573V5.95874H37.0505V6.79313H36.2919V7.3241H37.0505V8.38605H37.6573V7.3241H38.4917V6.79313Z" fill="#1928DC"/>
<path d="M28.9327 12.4062C28.9327 12.2544 28.9327 12.1027 28.9327 11.8752C29.0086 11.4201 29.0086 11.1166 28.9327 10.8132C28.4018 11.0408 27.9466 11.1925 27.1881 12.4062C27.264 12.482 28.4776 11.7235 28.9327 12.4062Z" fill="#1928DC"/>
<path d="M29.9954 14.4549C29.9954 14.1515 30.223 13.1654 30.4506 12.4827C30.754 11.6483 30.6023 10.3588 30.223 9.60026C29.8437 8.84172 29.6162 8.15905 29.692 7.40051C29.692 7.40051 28.9335 7.62807 28.5542 7.93148C28.4784 8.84172 29.0094 9.67611 29.2369 10.2071C29.5403 10.8139 29.4645 11.5724 29.3886 12.0276C29.3128 12.7861 29.4645 13.6205 29.9954 14.4549Z" fill="#1928DC"/>
<path d="M30.0737 7.77877C30.0737 7.70292 30.0737 7.3995 30.0737 7.32365C30.0737 7.32365 31.2115 6.18585 32.1976 6.03414C32.8045 5.88244 33.1837 6.18585 33.4113 6.33756C33.4113 6.33756 33.032 6.26171 32.5769 6.71683C32.0459 7.17194 31.4391 7.62707 30.9081 7.77877C30.453 7.77877 30.3013 7.77877 30.0737 7.77877Z" fill="#1928DC"/>
<path d="M33.5616 6.33838C34.0167 6.7935 34.396 7.24862 34.396 7.62789C34.396 8.00715 33.9409 9.0691 33.6375 9.44836C33.4099 9.82763 33.0306 10.3586 33.0306 10.9654C33.0306 11.2688 33.2582 11.5723 33.5616 11.8757C33.5616 11.8757 32.1204 11.5723 31.9687 10.662C31.817 9.90348 32.1204 9.29666 32.348 8.91739C32.5755 8.53813 33.1824 7.55203 33.4099 7.17276C33.4858 6.7935 33.5616 6.49009 33.5616 6.33838Z" fill="#1928DC"/>
<path d="M41.8276 16.2748C42.131 17.2609 42.5861 18.247 43.0412 19.0055C43.4964 19.6882 43.7239 20.7501 43.7239 21.1294C43.7239 21.1294 44.3307 19.6882 44.0273 18.7021C43.7998 17.8677 43.1171 16.7299 41.8276 16.2748Z" fill="#1928DC"/>
<path d="M43.4219 16.5776C43.4219 16.5776 44.408 16.5776 44.8631 16.8811C45.47 17.2603 46.0009 18.0947 46.2285 19.1567C46.2285 19.1567 45.2424 19.0049 44.7873 18.474C44.2563 18.0188 43.7253 17.2603 43.4219 16.5776Z" fill="#1928DC"/>
<path d="M38.4145 18.3229C38.2628 18.3229 37.7318 18.4746 37.5043 18.5504C37.5043 18.5504 38.3387 18.778 38.7179 19.1573C39.0972 19.4607 39.4006 19.9158 39.5523 20.6743C39.7799 21.7363 40.3867 22.8741 40.5384 23.2533H40.6143C40.4626 22.4948 40.9935 20.9777 41.0694 20.826C41.0694 20.826 40.3867 20.4468 40.0833 19.9916C39.8557 19.5365 39.4765 19.0056 38.4145 18.3229Z" fill="#1928DC"/>
<path d="M42.7393 20.599C42.9669 21.13 43.6496 22.1161 43.3462 23.178C43.0428 24.24 42.3601 24.6192 41.9808 25.5295C41.9808 25.5295 41.6774 23.9365 41.7533 22.7229C41.7533 21.5092 42.2084 21.0541 42.7393 20.599Z" fill="#1928DC"/>
<path d="M44.6327 20.6747C44.6327 20.6747 45.6188 22.571 45.7705 23.3295C45.9223 24.0881 45.7706 24.5432 45.4671 24.9983C45.1637 25.4534 44.5569 25.9086 44.0259 26.8188C44.0259 26.8188 43.4191 26.0603 43.3432 25.6051C43.2674 25.2259 43.4191 24.1639 43.4949 23.7847C43.6467 23.3295 44.1776 22.04 44.6327 20.6747Z" fill="#1928DC"/>
<path d="M45.0918 26.6665C44.8643 26.8941 43.7265 28.2594 43.5748 28.6387C43.4231 29.018 43.1955 29.7765 43.4989 30.3075C43.8782 30.8384 44.6367 31.6728 45.3953 32.0521C45.3953 32.0521 44.6367 30.8384 44.7126 29.8523C44.7884 29.2455 45.2436 28.6387 45.3194 28.2594C45.4711 27.8802 45.3953 27.2733 45.0918 26.6665Z" fill="#1928DC"/>
<path d="M42.8905 25.9082C43.0422 26.1358 43.3456 26.7426 43.4215 27.2736C43.4973 27.8045 43.3456 28.2597 43.0422 29.094C42.663 30.156 42.0561 31.2938 41.7527 31.8248C41.7527 31.8248 41.2217 31.0662 40.9183 30.3835C40.9183 30.3835 41.7527 29.2457 42.132 28.4114C42.5113 27.577 42.7388 26.6667 42.8905 25.9082Z" fill="#1928DC"/>
<path d="M42.5137 25.4531C42.5137 25.4531 42.1344 28.108 40.5415 30.156C39.4796 31.5214 38.5693 31.9765 38.0383 31.9765C37.204 31.9765 36.2937 31.218 35.9903 30.4594C35.6869 29.6251 35.7627 28.3356 36.3696 27.8804C36.3696 27.8804 36.9005 29.4734 37.9625 29.5492C39.252 29.6251 40.8449 28.1838 42.5137 25.4531Z" fill="#1928DC"/>
<path d="M41.2225 24.3906C41.3743 24.8457 41.3743 25.6043 41.2225 26.287C41.0708 26.8179 40.7674 27.5006 40.1606 27.8799C39.6296 28.1833 38.3401 28.2591 37.885 27.1213C37.885 27.1213 40.1606 27.2731 41.2225 24.3906Z" fill="#1928DC"/>
<path d="M44.9395 35.1621C45.2429 35.9965 46.3807 36.9826 46.3807 37.5894C46.3807 39.2582 45.6222 40.2443 45.4705 40.8511C45.4705 40.8511 44.1051 39.7892 43.8776 38.5755C43.8017 37.9687 43.8776 36.0723 44.9395 35.1621Z" fill="#1928DC"/>
<path d="M43.4966 36.3768C43.6483 35.9216 44.1793 34.7838 44.7103 34.3287C44.7103 34.3287 45.4688 32.2048 43.1173 30.8395C43.1173 30.8395 42.1313 32.129 41.9037 33.3426C41.6003 34.5563 42.8898 35.239 43.4966 36.3768Z" fill="#1928DC"/>
<path d="M40.5374 30.9152C40.1581 31.3703 39.6271 31.9771 39.2479 32.2047C39.2479 32.2047 39.0961 33.1908 39.172 33.7976C39.3237 34.7078 39.9305 35.6939 40.1581 36.3766C40.1581 36.3766 41.1442 35.0112 41.2959 34.2527C41.4476 33.4942 41.3717 32.8115 41.4476 32.4322C41.4476 32.5081 40.8408 31.5978 40.5374 30.9152Z" fill="#1928DC"/>
<path d="M37.8087 35.5414C37.5053 35.0862 36.595 33.4933 36.595 32.2797C36.595 32.2797 37.7328 32.8865 38.7189 32.4314C38.7189 32.4314 38.8706 33.9484 38.6431 34.4794C38.4914 34.9345 38.3397 35.1621 37.8087 35.5414Z" fill="#1928DC"/>
<path d="M38.113 35.8449C38.2647 35.6932 38.7956 35.2381 38.9474 35.0105C38.9474 35.0105 39.7059 36.3759 39.8576 36.831C39.8576 36.831 39.4783 36.9068 39.0232 36.6034C38.6439 36.3759 38.4922 36.3 38.113 35.8449Z" fill="#1928DC"/>
<path d="M41.679 35.0105C41.6031 35.3898 40.3136 37.0585 40.1619 37.2861C40.1619 37.2861 40.2378 37.8929 40.6929 38.8032C41.148 39.7134 41.7549 40.3202 42.1341 40.6236C42.1341 40.6236 42.8926 39.2583 43.1202 38.7273C43.3478 38.0446 43.3478 37.3619 43.2719 37.1344C42.9685 36.6034 42.0583 35.769 41.679 35.0105Z" fill="#1928DC"/>
<path d="M43.4994 39.5635C43.8029 40.0944 44.5614 41.0047 44.7131 41.7632C44.789 42.2942 44.7131 42.8252 44.5614 43.2044C44.4097 43.5837 43.8787 44.3422 43.5753 44.9491C43.5753 44.9491 42.4375 43.8871 42.2099 43.1286C42.0582 42.5218 42.0582 41.7632 42.3616 41.2322C42.6651 40.6254 43.2719 40.0944 43.4994 39.5635Z" fill="#1928DC"/>
<path d="M40.3127 39.4097C40.6161 40.0165 41.2988 40.6992 41.4505 41.2301C41.6022 41.9128 41.6781 42.2921 41.3747 43.0506C41.0713 43.7333 40.7679 44.1126 40.6162 44.5677C40.6162 44.5677 39.7059 43.354 39.5542 42.8989C39.4025 42.3679 39.3266 41.6094 39.5542 41.0784C39.7818 40.5475 40.0852 39.8648 40.3127 39.4097Z" fill="#1928DC"/>
<path d="M44.8639 43.8845C44.8639 43.8845 43.271 45.7809 43.3469 46.7669C43.4227 48.0565 44.2571 48.8908 44.333 49.6494C44.333 49.6494 45.1673 48.7391 45.4708 48.0565C45.85 47.3738 46.0776 46.7669 46.0017 45.9326C45.85 45.2499 45.6225 44.7189 44.8639 43.8845Z" fill="#1928DC"/>
<path d="M41.9042 43.7341C42.1318 44.1134 42.8903 45.327 42.6628 46.0856C42.4352 46.8441 41.6767 47.9061 41.4491 48.2853C41.4491 48.2853 40.8423 46.9958 40.6906 46.389C40.5389 45.858 40.6906 44.8719 41.9042 43.7341Z" fill="#1928DC"/>
<path d="M57.6816 12.2548C57.6816 12.1031 56.9989 11.9514 56.0887 11.9514C55.1784 11.9514 54.4957 12.1031 54.4957 12.2548C54.4957 12.4065 55.1784 12.5582 56.0887 12.5582C56.9989 12.5582 57.6816 12.4065 57.6816 12.2548Z" fill="#1928DC"/>
<path d="M46.7595 7.32364C46.8354 6.64096 47.6697 5.04805 47.6697 4.36537C47.6697 3.83439 47.2146 3.37927 46.6837 3.37927C46.1527 3.37927 45.6976 3.83439 45.6976 4.36537C45.7734 5.04805 46.6078 6.56511 46.7595 7.32364Z" fill="#1928DC"/>
<path d="M49.414 8.84055C50.2484 6.86837 50.7794 5.42715 50.7794 4.89618C50.7794 4.59277 50.4001 4.36521 50.0967 4.28935C49.7933 4.2135 49.4899 4.13765 49.2623 4.36521C48.8072 4.66862 48.428 7.39934 48.2762 8.46128C48.6555 8.53714 48.9589 8.61299 49.414 8.84055Z" fill="#1928DC"/>
<path d="M47.8973 8.38627C47.6697 8.38627 47.4422 8.38627 47.2905 8.31042C47.4422 7.24847 47.8214 5.50385 47.9732 4.74532C48.2007 4.06264 48.4283 3.53166 48.9592 3.45581C48.9592 3.45581 48.58 4.4419 48.4283 5.42799C48.2007 6.48994 48.049 7.47603 47.8973 8.38627Z" fill="#1928DC"/>
<path d="M47.8955 10.2817C48.4265 10.2059 49.716 10.3576 50.5504 10.8886C51.3848 11.4954 51.6123 11.9505 51.9157 12.4056C51.9157 12.4056 50.4745 12.5573 49.185 11.7988C48.5782 11.4954 48.0472 10.661 47.8955 10.2817ZM48.654 10.7369C48.654 10.7369 49.5643 11.723 50.4745 11.9505C50.5504 11.9505 50.1711 10.9644 48.654 10.7369Z" fill="#1928DC"/>
<path d="M55.5598 16.3508C55.5598 16.0474 55.5598 15.5923 55.5598 15.5923C54.8013 16.275 53.2842 16.806 53.2842 16.806C53.2842 16.4267 53.4359 16.0474 53.4359 16.0474C52.7532 16.4267 52.4498 16.4267 52.4498 16.4267C52.5257 15.9716 52.8291 15.3648 52.8291 15.3648C52.374 15.9716 51.7671 15.9716 51.7671 15.9716C51.6913 15.6682 51.843 14.9855 51.843 14.9855C51.6154 15.2889 51.1603 16.0474 49.8708 16.275C48.5813 16.5784 47.9745 15.8199 47.9745 15.8199C49.264 15.8957 50.4776 14.6821 50.4776 14.6821C49.795 14.4545 49.5674 13.9235 49.5674 13.9235C49.9467 13.5443 50.3259 13.5443 50.3259 13.5443C49.5674 13.165 49.4157 12.634 49.4157 12.634C50.4018 13.0892 53.2842 13.0892 54.8771 13.2409C56.47 13.3167 58.063 12.7099 58.063 12.7099C57.9113 16.1233 55.5598 16.3508 55.5598 16.3508ZM56.0908 14.9855C56.3942 14.7579 56.6218 14.3787 56.6976 13.9235C56.6976 13.9235 55.1806 13.9994 53.9669 13.8477V13.9235C53.8911 13.9994 56.0149 13.9994 56.0908 14.9855Z" fill="#1928DC"/>
<path d="M58.4395 12.8616C58.3636 13.6201 58.2119 14.3787 57.9085 14.9096C57.9085 14.9096 58.8187 14.227 59.0463 13.6201C59.3497 13.0133 59.4256 12.5582 58.4395 12.8616Z" fill="#1928DC"/>
<path d="M60.1107 13.6205C60.6417 13.4688 61.7795 13.3929 62.2346 14.0756C62.6898 14.7583 62.5381 16.1237 61.552 16.7305C61.552 16.7305 60.0349 15.441 58.2144 16.7305C58.2144 16.7305 57.7593 16.4271 56.8491 16.2754C56.8491 16.2754 57.38 15.5927 58.0627 15.2893C58.5937 14.9859 59.8073 14.6824 60.1107 13.6205ZM60.7176 15.3651C60.7176 15.1376 60.5659 14.9859 60.3383 14.9859C60.1108 14.9859 59.959 15.1376 59.959 15.3651C59.959 15.5927 60.1108 15.7444 60.3383 15.7444C60.5659 15.7444 60.7176 15.5168 60.7176 15.3651Z" fill="#1928DC"/>
<path d="M56.6217 16.4264C56.6217 16.4264 55.9391 17.3366 55.4839 17.7159C55.4839 17.7159 57.9113 17.7159 58.5181 19.8398C58.5181 19.8398 59.3525 18.5503 58.7456 17.7159C58.1388 16.8057 57.532 16.654 56.6217 16.4264Z" fill="#1928DC"/>
<path d="M53.9664 16.9569C53.9664 16.9569 53.2079 17.1845 52.9045 17.2603C52.9045 17.2603 52.9045 16.8052 52.9045 16.5776C52.6769 16.6535 52.3735 16.7293 52.1459 16.7293C52.1459 16.7293 51.3874 18.474 50.7047 19.2325C50.7047 19.2325 50.7047 19.6118 51.0081 20.2186C51.0081 20.2186 51.4632 19.1567 52.2218 18.3223C52.7528 17.8671 53.0562 17.6396 53.9664 16.9569Z" fill="#1928DC"/>
<path d="M56.0118 16.5776C55.7842 16.6535 54.4947 17.0328 53.8879 17.4879C53.1294 18.0188 52.5984 18.7015 52.6743 19.7635C52.6743 19.7635 53.2811 18.9291 53.9638 18.5498C54.5706 18.2464 55.5567 17.3362 56.0118 16.5776Z" fill="#1928DC"/>
<path d="M56.0164 8.61267C55.7888 8.61267 55.3337 8.68852 55.3337 9.06779C55.3337 9.44706 55.9405 10.3573 56.0922 10.7366C56.2439 10.3573 56.8507 9.44706 56.8507 9.06779C56.8507 8.68852 56.3956 8.61267 56.1681 8.61267H56.0164Z" fill="#1928DC"/>
<path d="M56.5434 11.5719C56.6192 11.0409 56.8468 9.67555 57.2261 9.37214C57.5295 9.06873 57.9846 9.06873 58.2122 9.06873C58.4397 9.06873 58.6673 9.29629 58.5914 9.5997C58.5156 9.90311 57.4536 11.4202 57.3778 11.6477C57.0744 11.5719 57.1502 11.6477 56.5434 11.5719Z" fill="#1928DC"/>
<path d="M55.636 11.5719C55.5601 11.0409 55.3326 9.67555 55.0292 9.37214C54.7258 9.06873 54.2706 9.06873 54.0431 9.06873C53.8155 9.06873 53.588 9.29629 53.6638 9.5997C53.7397 9.90311 54.8016 11.4202 54.8775 11.6477C55.105 11.5719 55.0292 11.6477 55.636 11.5719Z" fill="#1928DC"/>
<path d="M55.028 6.79313H55.7865V5.95874H56.3934V6.79313H57.2278V7.3241H56.3934V8.38605H55.7865V7.3241H55.028V6.79313Z" fill="#1928DC"/>
<path d="M45.546 1.63529H46.3045V0.800903H46.9113V1.63529H47.7457V2.16626H46.9113V3.22821H46.3045V2.16626H45.546V1.63529Z" fill="#1928DC"/>
<path d="M64.5847 12.406C64.5847 12.2543 64.5847 12.1026 64.5847 11.8751C64.5088 11.4199 64.5088 11.1165 64.5847 10.8131C65.1156 11.0407 65.5707 11.1924 66.3293 12.406C66.2534 12.4819 64.9639 11.7233 64.5847 12.406Z" fill="#1928DC"/>
<path d="M63.4495 14.4549C63.4495 14.1515 63.2219 13.1654 62.9944 12.4827C62.6909 11.6483 62.8426 10.3588 63.2219 9.60026C63.6012 8.84172 63.8287 8.15905 63.7529 7.40051C63.7529 7.40051 64.5114 7.62807 64.8907 7.93148C64.9665 8.84172 64.4356 9.67611 64.208 10.2071C63.9046 10.8139 63.9804 11.5724 64.0563 12.0276C64.208 12.7861 63.9805 13.6205 63.4495 14.4549Z" fill="#1928DC"/>
<path d="M63.3715 7.77877C63.3715 7.70292 63.3715 7.3995 63.3715 7.32365C63.3715 7.32365 62.2337 6.18585 61.2476 6.03414C60.6407 5.88244 60.2615 6.18585 60.0339 6.33756C60.0339 6.33756 60.4132 6.26171 60.8683 6.71683C61.3993 7.17194 62.0061 7.62707 62.5371 7.77877C63.0681 7.77877 63.1439 7.77877 63.3715 7.77877Z" fill="#1928DC"/>
<path d="M59.9591 6.33838C59.504 6.7935 59.1247 7.24862 59.1247 7.62789C59.1247 8.00715 59.5798 9.0691 59.8832 9.44836C60.1108 9.82763 60.49 10.3586 60.49 10.9654C60.49 11.2688 60.2625 11.5723 59.9591 11.8757C59.9591 11.8757 61.4003 11.5723 61.552 10.662C61.7037 9.90348 61.4003 9.29666 61.1727 8.91739C60.9452 8.53813 60.3383 7.55203 60.1108 7.17276C59.9591 6.7935 59.8832 6.49009 59.9591 6.33838Z" fill="#1928DC"/>
<path d="M51.6133 16.2748C51.3099 17.2609 50.8548 18.247 50.3996 19.0055C49.9445 19.6882 49.717 20.7501 49.717 21.1294C49.717 21.1294 49.0343 19.6882 49.4135 18.7021C49.6411 17.8677 50.3238 16.7299 51.6133 16.2748Z" fill="#1928DC"/>
<path d="M50.0221 16.5776C50.0221 16.5776 49.036 16.5776 48.5809 16.8811C47.9741 17.2603 47.4431 18.0947 47.2155 19.1567C47.2155 19.1567 48.2016 19.0049 48.6567 18.474C49.1877 18.0188 49.7945 17.2603 50.0221 16.5776Z" fill="#1928DC"/>
<path d="M55.1029 18.3229C55.2546 18.3229 55.7856 18.4746 56.0132 18.5504C56.0132 18.5504 55.1788 18.778 54.7995 19.1573C54.4202 19.4607 54.1168 19.9158 53.9651 20.6743C53.7376 21.7363 53.1307 22.8741 52.979 23.2533H52.9032C53.0549 22.4948 52.5239 20.9777 52.4481 20.826C52.4481 20.826 53.1307 20.4468 53.4341 19.9916C53.5858 19.5365 53.9651 19.0056 55.1029 18.3229Z" fill="#1928DC"/>
<path d="M50.7793 20.599C50.5517 21.13 49.869 22.1161 50.1724 23.178C50.4758 24.24 51.1585 24.6192 51.5378 25.5295C51.5378 25.5295 51.8412 23.9365 51.7653 22.7229C51.7653 21.5092 51.3102 21.0541 50.7793 20.599Z" fill="#1928DC"/>
<path d="M46.7595 23.4807C46.8354 22.8739 48.2008 21.4327 48.1249 20.5983C48.049 19.8398 46.9871 19.233 46.7595 19.1571C46.532 19.3088 45.47 19.8398 45.3942 20.5983C45.2425 21.4327 46.6837 22.8739 46.7595 23.4807Z" fill="#1928DC"/>
<path d="M48.884 20.675C48.884 20.675 47.8979 22.5714 47.7462 23.3299C47.5945 24.0884 47.7462 24.5436 48.0496 24.9987C48.353 25.4538 48.9598 25.9089 49.4908 26.8192C49.4908 26.8192 50.0976 26.0606 50.1735 25.6055C50.2493 25.2262 50.0976 24.1643 50.0218 23.785C49.7942 23.3299 49.2632 22.0404 48.884 20.675Z" fill="#1928DC"/>
<path d="M46.7604 27.957C47.2155 27.5778 47.5948 26.9709 47.7465 26.6675C47.8982 26.3641 47.8982 25.8331 47.5948 25.4539C47.2155 24.9987 46.8363 24.4678 46.7604 24.0885C46.7604 24.4678 46.3053 24.9987 45.926 25.4539C45.6226 25.8331 45.6985 26.2882 45.7743 26.6675C45.8502 26.9709 46.3053 27.5778 46.7604 27.957Z" fill="#1928DC"/>
<path d="M48.3543 26.6665C48.5818 26.8941 49.7196 28.2594 49.8713 28.6387C50.023 29.018 50.2506 29.7765 49.9472 30.3075C49.5679 30.8384 48.8094 31.6728 48.0508 32.0521C48.0508 32.0521 48.8094 30.8384 48.7335 29.8523C48.6577 29.2455 48.2026 28.6387 48.1267 28.2594C48.0508 27.8802 48.1267 27.2733 48.3543 26.6665Z" fill="#1928DC"/>
<path d="M50.5519 25.9082C50.4002 26.1358 50.0968 26.7426 50.0209 27.2736C49.9451 27.8045 50.0968 28.2597 50.4002 29.094C50.7794 30.156 51.3863 31.2938 51.6897 31.8248C51.6897 31.8248 52.2207 31.0662 52.5241 30.3835C52.5241 30.3835 51.6897 29.2457 51.3104 28.4114C50.9312 27.577 50.7794 26.6667 50.5519 25.9082Z" fill="#1928DC"/>
<path d="M51.0078 25.4531C51.0078 25.4531 51.3871 28.108 52.98 30.156C54.0419 31.5214 54.9522 31.9765 55.4832 31.9765C56.3175 31.9765 57.2278 31.218 57.5312 30.4594C57.8346 29.6251 57.7587 28.3356 57.1519 27.8804C57.1519 27.8804 56.6209 29.4734 55.559 29.5492C54.1936 29.6251 52.6007 28.1838 51.0078 25.4531Z" fill="#1928DC"/>
<path d="M52.2957 24.3906C52.144 24.8457 52.144 25.6043 52.2957 26.287C52.4474 26.8179 52.7508 27.5006 53.3576 27.8799C53.8886 28.1833 55.1781 28.2591 55.6332 27.1213C55.6332 27.1213 53.2818 27.2731 52.2957 24.3906Z" fill="#1928DC"/>
<path d="M46.7599 32.2809C47.0633 32.1292 47.3667 31.9775 47.746 31.4466C48.0494 30.9914 48.3528 30.157 48.1253 29.5502C47.8977 28.7917 47.5184 28.5641 47.2909 28.109C47.0633 28.2607 46.9875 28.4124 46.7599 28.5641C46.5323 28.4124 46.3806 28.2607 46.2289 28.109C46.0014 28.5641 45.6221 28.8675 45.3945 29.5502C45.2428 30.157 45.5462 30.9914 45.7738 31.4466C46.1531 32.0534 46.3806 32.1292 46.7599 32.2809Z" fill="#1928DC"/>
<path d="M46.761 36.8315C46.9127 36.1488 48.4297 34.7834 48.278 34.0249C48.0505 32.8871 47.3678 33.1147 46.761 32.6595C46.1541 33.1147 45.4714 32.8871 45.2439 34.0249C45.0922 34.7834 46.5334 36.1488 46.761 36.8315Z" fill="#1928DC"/>
<path d="M48.5051 35.1622C48.2017 35.9966 47.0639 36.9827 47.0639 37.5895C47.0639 39.2583 47.8224 40.2444 47.9741 40.8512C47.9741 40.8512 49.3395 39.7893 49.5671 38.5756C49.7188 37.9688 49.5671 36.0725 48.5051 35.1622Z" fill="#1928DC"/>
<path d="M50.0192 36.3768C49.8674 35.9216 49.3365 34.7838 48.8055 34.3287C48.8055 34.3287 48.047 32.2048 50.3984 30.8395C50.3984 30.8395 51.3845 32.129 51.6121 33.3426C51.8396 34.5563 50.626 35.239 50.0192 36.3768Z" fill="#1928DC"/>
<path d="M52.9024 30.9153C53.2816 31.3704 53.8126 31.9772 54.1919 32.2048C54.1919 32.2048 54.3436 33.1909 54.2677 33.7977C54.116 34.7079 53.5092 35.694 53.2816 36.3767C53.2816 36.3767 52.2955 35.0114 52.1438 34.2528C51.9921 33.4943 52.068 32.8116 51.9921 32.4323C52.068 32.5082 52.5989 31.598 52.9024 30.9153Z" fill="#1928DC"/>
<path d="M55.6338 35.5414C55.9372 35.0862 56.8474 33.4933 56.8474 32.2797C56.8474 32.2797 55.7097 32.8865 54.7236 32.4314C54.7236 32.4314 54.5718 33.9484 54.7994 34.4794C54.9511 34.9345 55.1787 35.1621 55.6338 35.5414Z" fill="#1928DC"/>
<path d="M55.3311 35.8449C55.1794 35.6932 54.6484 35.2381 54.4967 35.0105C54.4967 35.0105 53.7382 36.3759 53.5865 36.831C53.5865 36.831 53.9657 36.9068 54.4209 36.6034C54.876 36.3759 54.9518 36.3 55.3311 35.8449Z" fill="#1928DC"/>
<path d="M51.8413 35.0105C51.9171 35.3898 53.2066 37.0585 53.3583 37.2861C53.3583 37.2861 53.2825 37.8929 52.8274 38.8032C52.3723 39.7134 51.7654 40.3202 51.3862 40.6236C51.3862 40.6236 50.6276 39.2583 50.4001 38.7273C50.1725 38.0446 50.1725 37.3619 50.2484 37.1344C50.5518 36.6034 51.3862 35.769 51.8413 35.0105Z" fill="#1928DC"/>
<path d="M46.7603 45.1756C46.912 44.7205 47.5946 44.1137 47.8981 43.3551C48.0498 42.9 48.0498 42.2932 47.8981 41.9139C47.6705 41.4588 46.912 40.3968 46.7603 40.0176C46.6844 40.321 45.85 41.4588 45.6225 41.9139C45.3949 42.2932 45.3949 42.9 45.6225 43.3551C45.9259 44.1895 46.6085 44.7205 46.7603 45.1756Z" fill="#1928DC"/>
<path d="M49.9463 39.5635C49.6429 40.0944 48.8843 41.0047 48.7326 41.7632C48.6568 42.2942 48.7326 42.8252 48.8843 43.2044C49.036 43.5837 49.567 44.3422 49.8704 44.9491C49.8704 44.9491 51.0082 43.8871 51.2358 43.1286C51.3875 42.5218 51.3875 41.7632 51.0841 41.2322C50.7807 40.6254 50.2497 40.0944 49.9463 39.5635Z" fill="#1928DC"/>
<path d="M53.1315 39.4097C52.8281 40.0165 52.1454 40.6992 51.9937 41.2301C51.842 41.9128 51.7661 42.2921 52.0696 43.0506C52.373 43.7333 52.6764 44.1126 52.8281 44.5677C52.8281 44.5677 53.7383 43.354 53.89 42.8989C54.0417 42.3679 54.1176 41.6094 53.89 41.0784C53.7383 40.5475 53.3591 39.8648 53.1315 39.4097Z" fill="#1928DC"/>
<path d="M46.7585 54.2773C46.8344 53.6704 48.048 51.9258 48.048 50.0295C48.048 49.0434 47.2136 47.6022 46.7585 46.9954C46.3034 47.5263 45.3931 49.0434 45.469 50.0295C45.469 51.9258 46.6827 53.7463 46.7585 54.2773Z" fill="#1928DC"/>
<path d="M48.6581 43.8845C48.6581 43.8845 50.251 45.7809 50.1751 46.7669C50.0993 48.0565 49.2649 48.8908 49.189 49.6494C49.189 49.6494 48.3547 48.7391 48.0512 48.0565C47.672 47.3738 47.4444 46.7669 47.5203 45.9326C47.5961 45.2499 47.8237 44.7189 48.6581 43.8845Z" fill="#1928DC"/>
<path d="M51.5385 43.7341C51.311 44.1134 50.5525 45.327 50.78 46.0856C51.0076 46.8441 51.7661 47.9061 51.9937 48.2853C51.9937 48.2853 52.6005 46.9958 52.7522 46.389C52.9039 45.858 52.8281 44.8719 51.5385 43.7341Z" fill="#1928DC"/>
<path d="M47.8213 57.3873C47.8972 55.8702 48.7315 55.0358 48.8833 54.2773C49.035 53.4429 48.9591 52.6085 48.3523 51.6224C47.8213 53.4429 47.2145 54.8083 46.7594 55.7185C46.3042 54.8083 45.6974 53.4429 45.1664 51.6224C44.4838 52.6085 44.4838 53.4429 44.6355 54.2773C44.7872 55.0358 45.6216 55.9461 45.6974 57.3873C45.7733 58.9044 44.1045 59.4353 44.1045 59.4353C44.6355 59.6629 45.3182 59.7387 46.3042 58.7526C46.456 58.6009 46.6077 58.3734 46.7594 58.1458C46.8352 58.3734 46.9869 58.5251 47.2145 58.7526C48.2006 59.7387 48.8833 59.6629 49.4142 59.4353C49.4142 59.4353 47.7455 58.8285 47.8213 57.3873Z" fill="#1928DC"/>
<path d="M42.5872 47.5273C42.7389 48.0583 43.2699 49.1203 43.3457 49.4237C43.4974 50.0305 43.2699 50.7132 42.2079 51.4717C42.2079 51.4717 41.5252 51.0166 41.2218 50.3339C40.9943 49.7271 41.146 49.3478 41.3735 48.9686C41.6769 48.6651 42.2838 47.9825 42.5872 47.5273Z" fill="#1928DC"/>
<path d="M44.7882 49.7261C44.7882 50.0295 44.5606 51.6983 44.1055 52.5326C43.4228 53.6704 42.4367 54.5807 41.6023 54.5807C40.768 54.5807 40.6163 54.1256 40.237 53.898C40.237 53.898 40.4646 52.9119 41.2989 52.6085C42.4367 52.3051 44.1055 50.9397 44.7882 49.7261Z" fill="#1928DC"/>
<path d="M41.9051 51.8507C41.7534 51.699 41.5258 51.6231 41.2983 51.3197C41.2983 51.3197 40.4639 51.6231 39.7812 52.0782C39.0985 52.5334 38.4158 53.3677 38.0366 53.747C38.0366 53.747 39.0985 54.0504 39.7812 53.747C39.7812 53.747 40.0088 52.7609 40.7673 52.3058C40.919 52.2299 41.45 52.0782 41.9051 51.8507Z" fill="#1928DC"/>
<path d="M41.0717 51.0148C40.92 50.7873 40.5407 50.3321 40.6166 49.5736C40.6166 49.5736 39.1754 50.4838 38.7202 50.8631C38.2651 51.2424 37.3549 52.1526 37.1273 52.456C37.1273 52.456 38.2651 52.2285 39.0995 51.9251C40.0856 51.6216 40.6924 51.1665 41.0717 51.0148Z" fill="#1928DC"/>
<path d="M38.5683 52.6084C37.8098 52.9118 35.9893 53.2152 35.2308 53.3669C34.4723 53.5945 33.9413 53.9738 33.2586 54.7323C33.2586 54.7323 34.3206 55.0357 34.9274 55.1874C34.9274 55.1874 35.8376 54.5806 36.8996 54.1255C37.5064 53.9738 37.8857 53.2911 38.5683 52.6084Z" fill="#1928DC"/>
<path d="M36.8977 57.8432C37.0495 57.6915 37.277 57.464 37.1253 57.0088C36.9736 56.7054 36.3668 56.3262 35.9875 56.1744C35.3807 55.871 33.5602 55.4159 33.0292 55.1884C33.0292 55.1884 32.7258 55.4918 32.5741 55.871C32.4983 56.0227 32.5741 56.1744 32.8775 56.1744C33.4085 56.2503 34.5463 56.0227 34.8497 56.2503C35.1531 56.4779 35.0773 56.7054 35.0773 57.0088C35.0773 57.0088 35.6082 56.7054 35.9875 56.7813C36.3668 56.8571 36.6702 57.0847 36.8977 57.8432Z" fill="#1928DC"/>
<path d="M35.3051 55.4144C35.4568 55.4903 36.1394 55.642 36.8221 56.0971C36.8221 56.0971 37.1255 55.9454 37.2772 55.7178C37.4289 55.4903 38.0358 54.58 38.5667 54.4283C38.5667 54.4283 38.1116 54.3525 37.8082 54.2766C37.8082 54.2766 37.2014 54.4283 36.8221 54.58C36.4429 54.7317 35.9119 54.9593 35.3051 55.4144Z" fill="#1928DC"/>
<path d="M39.9339 54.2766C39.858 54.3525 39.6305 54.4283 39.2512 54.4283C39.2512 54.4283 37.6583 55.4903 37.5066 56.6281C37.3549 57.5383 37.81 57.9934 38.0376 58.1451C38.2651 58.2968 39.3271 58.6761 40.0856 57.2349C40.0856 57.2349 38.8719 57.6142 38.5685 57.0832C38.2651 56.4764 38.7961 55.642 39.0995 55.4144C39.5546 55.111 40.3132 54.8834 40.7683 54.9593C40.7683 54.8076 40.389 54.5042 39.9339 54.2766Z" fill="#1928DC"/>
<path d="M29.6928 66.6415C29.9203 65.883 30.072 65.0486 30.4513 64.2142C31.134 62.6972 32.8786 58.7528 36.5196 58.0701C36.8988 57.9943 36.1403 57.1599 35.8369 57.2357C35.5335 57.3116 34.8508 57.6909 34.5474 57.8426C34.5474 57.8426 34.5474 57.0082 34.5474 56.8565C34.5474 56.7048 34.3957 56.6289 34.244 56.6289C34.0922 56.6289 33.2579 56.6289 32.9544 56.9323C32.1201 57.9184 30.7547 60.4216 29.9962 62.3179C29.2376 64.2142 28.7067 64.8211 27.8723 64.5176C27.0379 64.2142 26.5828 63.304 25.0657 63.5316C24.5347 63.6074 24.0038 63.9867 23.5486 64.4418C23.7004 64.6694 23.852 64.9728 24.5347 64.9728C25.2174 64.9728 26.5069 65.2762 27.1896 65.7313C27.8723 66.3381 28.6308 66.5657 29.6928 66.6415Z" fill="#1928DC"/>
<path d="M44.1067 54.2766C44.1826 54.8834 44.486 55.4903 44.7894 56.0971C44.7894 56.0971 43.7275 61.1793 39.7072 61.5585C39.7072 61.5585 39.7831 60.4966 40.9968 59.7381C42.2104 58.9037 43.955 57.69 43.8033 55.7937C43.8033 55.7937 43.4999 55.8695 42.8931 56.5522C42.3621 57.2349 41.0726 59.2829 39.1763 59.2829C39.1763 59.2829 39.4797 58.2968 40.3141 57.7659C41.1485 57.2349 42.2104 56.4764 42.7414 55.642C43.1965 54.8834 43.7275 54.4283 44.1067 54.2766Z" fill="#1928DC"/>
<path d="M42.2096 72.7846L44.6369 76.198L46.4574 72.9363L45.7747 71.7985C45.3196 72.6328 44.7886 73.6189 44.4852 74.0741C44.2576 73.7706 43.6508 72.9363 42.8164 71.7985L42.2096 72.7846Z" fill="#1928DC"/>
<path d="M41.6035 69.9028C39.252 66.6411 36.3696 62.545 36.0662 62.0899L36.9764 61.4072L34.094 60.2694L34.1699 63.3794L35.1559 62.6967L40.9966 70.8889L41.6035 69.9028Z" fill="#1928DC"/>
<path d="M21.7273 51.3959C22.41 50.6374 23.6237 51.3201 24.8373 52.382C26.051 53.5198 26.8095 54.6576 26.1268 55.4161C25.4442 56.0988 24.2305 55.492 23.0169 54.43C21.8032 53.2922 20.9688 52.1544 21.7273 51.3959Z" fill="#1928DC"/>
<path d="M23.7014 65.1248C23.6255 65.1248 23.6255 65.0489 23.6255 65.0489C22.9428 64.5179 22.6394 63.6077 22.6394 62.6216C22.6394 60.8011 24.1565 59.2841 25.977 59.2841C27.7974 59.2841 29.3145 60.8011 29.3145 62.6216C29.3145 62.8492 29.2387 63.3043 29.2387 63.3043C29.3904 63.0009 29.9213 61.7872 30.073 61.5597C29.5421 59.7392 27.9491 58.4497 25.977 58.4497C24.3082 58.4497 22.867 59.4358 22.1843 60.8011C22.4119 59.1324 23.2462 57.6153 23.8531 57.0843C24.5357 56.4016 25.7494 56.1741 25.7494 56.1741C24.9909 56.3258 23.9289 55.7948 22.7911 54.7329C21.6533 53.7468 21.1223 52.8365 21.0465 52.078C21.1223 53.1399 21.0465 53.7468 20.8189 54.5812C20.4397 55.719 19.3019 57.8428 19.6811 60.2702C19.9087 61.5597 20.8948 63.5318 22.4877 65.2006C22.7911 65.5799 22.9428 66.1109 23.0187 66.4143C23.0187 66.4143 25.3701 66.4143 25.977 66.4901C25.977 66.4901 26.5079 66.4143 26.5079 66.1109C26.5079 65.7316 26.2045 65.6557 25.9011 65.6557C25.5218 65.5799 24.3082 65.6557 23.7014 65.1248Z" fill="#1928DC"/>
<path d="M36.7469 65.9595C35.2299 66.4904 33.7128 66.7939 32.2716 67.0214C31.3614 67.1731 30.4511 67.249 29.5409 67.1731C29.5409 67.3248 29.5409 67.4765 29.465 67.6282C29.465 67.6282 29.6167 67.8558 29.6167 68.0834C30.527 68.0834 31.4372 68.0834 32.4233 67.9317C34.0162 67.7041 35.685 67.4007 37.3538 66.718L36.7469 65.9595Z" fill="#1928DC"/>
<path d="M39.2508 65.8821C41.2988 64.7443 43.271 63.0755 45.0157 60.3448L45.3191 59.8138C44.864 60.0414 44.1813 59.8897 44.1813 59.8897C44.1813 59.9655 44.1054 60.0414 44.0296 60.1173C42.3608 62.5446 40.5403 64.1375 38.644 65.1236L39.2508 65.8821Z" fill="#1928DC"/>
<path d="M25.9766 66.7164C25.6732 66.6405 24.8388 66.7164 24.3078 66.7922C23.701 66.8681 23.0942 67.0198 23.0183 67.3232C22.9424 67.6266 23.17 67.93 23.4734 68.3851C23.6251 68.6885 24.0803 68.5368 24.3078 68.3851C24.5354 68.3093 25.9007 67.5507 26.1283 67.3232C26.28 67.0956 26.3559 66.7922 25.9766 66.7164Z" fill="#1928DC"/>
<path d="M27.3408 67.6273C27.1891 67.5515 26.8098 67.3998 26.4305 67.5515C26.0513 67.7032 24.6859 68.4617 24.6101 68.841C24.5342 69.2203 24.6859 69.372 24.9135 69.4478C25.141 69.5237 25.3686 69.5995 25.5962 69.5995C25.8996 69.5995 26.2788 69.4478 26.4305 69.2203C26.5822 68.9927 27.2649 68.2342 27.3408 68.0825C27.4166 67.9307 27.4925 67.7032 27.3408 67.6273Z" fill="#1928DC"/>
<path d="M27.4945 68.4617C27.2669 68.6893 26.736 69.372 26.6601 69.4478C26.5842 69.5237 26.6601 69.7512 26.8877 69.6754C27.0394 69.6754 27.9496 69.5995 28.4806 69.2203C29.0116 68.841 29.3908 68.1583 29.0116 67.9307C28.7081 67.6273 28.1013 67.779 27.4945 68.4617Z" fill="#1928DC"/>
<path d="M27.7971 66.4143C27.6454 66.3384 26.8869 66.1867 26.7352 66.4143C26.5835 66.7177 26.6593 67.0211 27.1903 67.2486C27.7212 67.4762 28.7832 67.7038 28.9349 67.4003C29.2383 67.1728 28.9349 66.7177 27.7971 66.4143Z" fill="#1928DC"/>
<path d="M50.9326 47.5273C50.7809 48.0583 50.2499 49.1203 50.1741 49.4237C50.0223 50.0305 50.2499 50.7132 51.3119 51.4717C51.3119 51.4717 51.9945 51.0166 52.2979 50.3339C52.5255 49.7271 52.3738 49.3478 52.1462 48.9686C51.767 48.6651 51.1601 47.9825 50.9326 47.5273Z" fill="#1928DC"/>
<path d="M48.657 49.7261C48.657 50.0295 48.8846 51.6983 49.3397 52.5326C50.0224 53.6704 51.0085 54.5807 51.8429 54.5807C52.6773 54.5807 52.829 54.1256 53.2083 53.898C53.2083 53.898 52.9807 52.9119 52.0705 52.6085C51.0085 52.3051 49.3397 50.9397 48.657 49.7261Z" fill="#1928DC"/>
<path d="M51.5401 51.8507C51.6918 51.699 51.9194 51.6231 52.0711 51.3197C52.0711 51.3197 52.9055 51.6231 53.5881 52.0782C54.2708 52.5334 54.9535 53.3677 55.3328 53.747C55.3328 53.747 54.2708 54.0504 53.5881 53.747C53.5881 53.747 53.3606 52.7609 52.602 52.3058C52.5262 52.2299 51.9952 52.0782 51.5401 51.8507Z" fill="#1928DC"/>
<path d="M52.3729 51.0148C52.5246 50.7873 52.9039 50.3321 52.828 49.5736C52.828 49.5736 54.2693 50.4838 54.7244 50.8631C55.1795 51.2424 56.0897 52.1526 56.3173 52.456C56.3173 52.456 55.1795 52.2285 54.3451 51.9251C53.4349 51.6216 52.7522 51.1665 52.3729 51.0148Z" fill="#1928DC"/>
<path d="M54.8764 52.6084C55.6349 52.9118 57.4554 53.2152 58.2139 53.3669C58.9725 53.5945 59.5035 53.9738 60.1861 54.7323C60.1861 54.7323 59.1242 55.0357 58.5174 55.1874C58.5174 55.1874 57.6071 54.5806 56.5452 54.1255C55.9384 53.9738 55.6349 53.2911 54.8764 52.6084Z" fill="#1928DC"/>
<path d="M56.5436 57.8435C56.3919 57.6918 56.1643 57.4642 56.316 57.0091C56.4677 56.7057 57.0746 56.3264 57.4538 56.1747C58.0606 55.8713 59.8811 55.4162 60.4121 55.1886C60.4121 55.1886 60.7155 55.492 60.8672 55.8713C60.9431 56.023 60.8672 56.1747 60.5638 56.1747C60.0328 56.2505 58.895 56.023 58.5916 56.2505C58.2882 56.4781 58.3641 56.7057 58.3641 57.0091C58.3641 57.0091 57.8331 56.7057 57.4538 56.7815C57.1504 56.8574 56.847 57.0849 56.5436 57.8435Z" fill="#1928DC"/>
<path d="M58.1381 55.4144C57.9864 55.4903 57.3037 55.642 56.621 56.0971C56.621 56.0971 56.3176 55.9454 56.1659 55.7178C56.0142 55.4903 55.4074 54.58 54.8764 54.4283C54.8764 54.4283 55.3315 54.3525 55.6349 54.2766C55.6349 54.2766 56.2418 54.4283 56.621 54.58C57.0003 54.7317 57.5313 54.9593 58.1381 55.4144Z" fill="#1928DC"/>
<path d="M53.5868 54.2766C53.6626 54.3525 53.8902 54.4283 54.2694 54.4283C54.2694 54.4283 55.8624 55.4903 56.0141 56.6281C56.1658 57.5383 55.7107 57.9934 55.4831 58.1451C55.2555 58.2968 54.1936 58.6761 53.4351 57.2349C53.4351 57.2349 54.6487 57.6142 54.9521 57.0832C55.2555 56.4764 54.7246 55.642 54.4211 55.4144C53.966 55.111 53.2075 54.8834 52.7524 54.9593C52.7524 54.8076 53.1317 54.5042 53.5868 54.2766Z" fill="#1928DC"/>
<path d="M63.8243 66.6415C63.5968 65.883 63.445 65.0486 63.0658 64.2142C62.3831 62.6972 60.6385 58.7528 56.9975 58.0701C56.6183 57.9943 57.3768 57.1599 57.6802 57.2357C57.9836 57.3116 58.6663 57.6909 58.9697 57.8426C58.9697 57.8426 58.9697 57.0082 58.9697 56.8565C58.9697 56.7048 59.1214 56.6289 59.2731 56.6289C59.4248 56.6289 60.2592 56.6289 60.5626 56.9323C61.397 57.9184 62.7623 60.4216 63.5209 62.3179C64.2794 64.2142 64.8104 64.8211 65.6448 64.5176C66.4792 64.2142 67.0101 63.304 68.4513 63.5316C68.9823 63.6074 69.5133 63.9867 69.9684 64.4418C69.8167 64.6694 69.665 64.9728 68.9823 64.9728C68.2996 64.9728 67.0101 65.2762 66.3275 65.7313C65.5689 66.3381 64.8104 66.5657 63.8243 66.6415Z" fill="#1928DC"/>
<path d="M49.4136 54.2766C49.3377 54.8834 49.0343 55.4903 48.7309 56.0971C48.7309 56.0971 49.7928 61.1793 53.8131 61.5585C53.8131 61.5585 53.7372 60.4966 52.5235 59.7381C51.3099 58.9037 49.5653 57.69 49.717 55.7937C49.717 55.7937 50.0204 55.8695 50.6272 56.5522C51.1582 57.2349 52.4477 59.2829 54.344 59.2829C54.344 59.2829 54.0406 58.2968 53.2062 57.7659C52.3719 57.2349 51.3099 56.4764 50.7789 55.642C50.248 54.8834 49.717 54.4283 49.4136 54.2766Z" fill="#1928DC"/>
<path d="M46.7605 59.208C46.9881 59.8907 48.5051 62.0146 49.1878 62.6214C49.8705 63.2282 51.4634 64.8212 52.2978 65.6555C52.2978 65.6555 49.8705 65.0487 48.5051 63.8351C48.5051 63.8351 47.519 64.4419 46.8364 64.4419H46.7605C46.0778 64.4419 45.0917 63.8351 45.0917 63.8351C43.7264 65.0487 41.2991 65.6555 41.2991 65.6555C42.1335 64.8212 43.7264 63.2282 44.4091 62.6214C45.0159 62.0146 46.5329 59.8907 46.7605 59.208Z" fill="#1928DC"/>
<path d="M46.7573 64.8204C47.2882 64.8204 47.8192 64.5928 48.1226 64.517C47.8192 65.1238 47.2882 66.034 46.7573 66.4892C46.2263 66.1099 45.6953 65.1238 45.3919 64.517C45.6953 64.6687 46.1504 64.8204 46.7573 64.8204Z" fill="#1928DC"/>
<path d="M48.8065 76.1992L58.364 62.8491L59.3501 63.5317L59.4259 60.4218L56.5435 61.5596L57.4537 62.2422C56.9986 62.9249 49.8684 72.8617 48.9582 74.1512L44.6345 66.3383L44.1036 67.1727L40.2351 73.0134L39.249 72.4066V75.5166L42.1314 74.3788L41.1453 73.6961C41.6763 72.8617 43.7243 69.7517 44.4828 68.6898L48.8065 76.1992Z" fill="#1928DC"/>
<path d="M50.5514 70.8883C49.9445 69.9022 49.2619 68.9161 48.9585 68.461C48.7309 68.9161 48.1999 69.8264 47.6689 70.7366L46.9863 69.523L48.8067 66.1854L49.3377 67.0198L51.2341 69.9022L50.5514 70.8883Z" fill="#1928DC"/>
<path d="M52.5232 71.7985L53.2059 72.8604L54.192 72.2536V75.3636L51.3096 74.2258L52.2957 73.5431C52.2198 73.3914 52.0681 73.1638 51.8405 72.8604L52.5232 71.7985Z" fill="#1928DC"/>
<path d="M71.7915 51.3958C71.1088 50.6373 69.8952 51.3199 68.6815 52.3819C67.4679 53.5197 66.7093 54.6575 67.392 55.416C68.0747 56.0987 69.2883 55.4919 70.502 54.4299C71.7156 53.2921 72.4742 52.1543 71.7915 51.3958Z" fill="#1928DC"/>
<path d="M69.8195 65.1248C69.8953 65.1248 69.8953 65.0489 69.8953 65.0489C70.578 64.5179 70.8814 63.6077 70.8814 62.6216C70.8814 60.8011 69.3644 59.2841 67.5439 59.2841C65.7234 59.2841 64.2063 60.8011 64.2063 62.6216C64.2063 62.8492 64.2822 63.3043 64.2822 63.3043C64.1305 63.0009 63.5995 61.7872 63.4478 61.5597C63.9788 59.7392 65.5717 58.4497 67.5439 58.4497C69.2127 58.4497 70.6539 59.4358 71.3366 60.8011C71.109 59.1324 70.2746 57.6153 69.6678 57.0843C68.9851 56.4016 67.7714 56.1741 67.7714 56.1741C68.53 56.3258 69.5919 55.7948 70.7297 54.7329C71.8675 53.7468 72.3985 52.8365 72.4744 52.078C72.3985 53.1399 72.4743 53.7468 72.7019 54.5812C73.0812 55.719 74.219 57.8428 73.8397 60.2702C73.6121 61.5597 72.7019 63.5318 71.0331 65.2006C70.6539 65.5799 70.578 66.1109 70.5022 66.4143C70.5022 66.4143 68.1507 66.4143 67.5439 66.4901C67.5439 66.4901 67.0129 66.4143 67.0129 66.1109C67.0129 65.7316 67.3163 65.6557 67.6197 65.6557C67.999 65.5799 69.1368 65.6557 69.8195 65.1248Z" fill="#1928DC"/>
<path d="M54.1942 65.8062C52.1462 64.6684 50.174 62.9997 48.4294 60.269L48.126 59.8138C48.5811 60.0414 49.2638 59.8897 49.2638 59.8897C49.2638 59.9655 49.3396 60.0414 49.4155 60.1173C51.0843 62.5446 52.9047 64.1375 54.8011 65.1236L54.1942 65.8062Z" fill="#1928DC"/>
<path d="M56.6969 65.9595C58.214 66.4904 59.7311 66.7939 61.1723 67.0214C62.0825 67.1731 62.9927 67.249 63.903 67.1731C63.903 67.3248 63.903 67.4765 63.9788 67.6282C63.9788 67.6282 63.8271 67.8558 63.8271 68.0834C62.9169 68.0834 62.0066 68.0834 61.0206 67.9317C59.4276 67.7041 57.7589 67.4007 56.0901 66.718L56.6969 65.9595Z" fill="#1928DC"/>
<path d="M67.5449 66.7164C67.8484 66.6405 68.6827 66.7164 69.2137 66.7922C69.8205 66.8681 70.4274 67.0198 70.5032 67.3232C70.5791 67.6266 70.3515 67.93 70.0481 68.3851C69.8964 68.6885 69.4413 68.5368 69.2137 68.3851C68.9861 68.3093 67.6208 67.5507 67.3932 67.3232C67.1657 67.0956 67.0898 66.7922 67.5449 66.7164Z" fill="#1928DC"/>
<path d="M66.1003 67.6273C66.252 67.5515 66.6312 67.3998 67.0105 67.5515C67.3898 67.7032 68.7551 68.4617 68.831 68.841C68.9068 69.2203 68.7551 69.372 68.5276 69.4478C68.3 69.5237 68.0725 69.5995 67.8449 69.5995C67.5415 69.5995 67.1622 69.4478 67.0105 69.2203C66.8588 68.9927 66.1761 68.2342 66.1003 68.0825C66.0244 67.9307 65.9486 67.7032 66.1003 67.6273Z" fill="#1928DC"/>
<path d="M65.9501 68.4617C66.1777 68.6893 66.7086 69.372 66.7845 69.4478C66.8604 69.5237 66.7845 69.7512 66.5569 69.6754C66.4052 69.6754 65.495 69.5995 64.964 69.2203C64.4331 68.841 64.0538 68.1583 64.433 67.9307C64.8123 67.6273 65.3433 67.779 65.9501 68.4617Z" fill="#1928DC"/>
<path d="M65.645 66.4143C65.7967 66.3384 66.5552 66.1867 66.7069 66.4143C66.9345 66.7177 66.7828 67.0211 66.2518 67.2486C65.7208 67.4762 64.6589 67.7038 64.5072 67.4003C64.2038 67.1728 64.5072 66.7177 65.645 66.4143Z" fill="#1928DC"/>
<g clip-path="url(#clip0_2808_19546)">
<path d="M118.346 26.7488V50.2043H114.44V30.1189H107.798V50.2043H103.885V26.7488H118.346Z" fill="#1928DC"/>
<path d="M123.276 49.2768C122.103 48.2008 121.252 46.82 120.819 45.2884C120.183 43.1437 119.888 40.9125 119.944 38.6762C119.89 36.3831 120.185 34.0951 120.819 31.8906C121.249 30.3143 122.098 28.8839 123.276 27.7514C124.309 26.868 125.623 26.3824 126.982 26.3824C128.341 26.3824 129.655 26.868 130.688 27.7514C131.864 28.8704 132.71 30.2922 133.131 31.8605C133.76 34.0658 134.055 36.3532 134.005 38.6461C134.062 40.8947 133.767 43.1384 133.131 45.2959C132.709 46.827 131.862 48.2072 130.688 49.2768C129.638 50.1296 128.327 50.5952 126.975 50.5952C125.622 50.5952 124.311 50.1296 123.261 49.2768H123.276ZM124.242 43.3507C124.395 44.3558 124.771 45.314 125.342 46.1554C125.522 46.4283 125.764 46.6543 126.048 46.8143C126.333 46.9744 126.652 47.0638 126.978 47.0753C127.943 47.0753 128.705 46.3741 129.24 44.9566C129.902 42.9315 130.198 40.805 130.115 38.6762C130.138 37.0446 130.012 35.4142 129.738 33.8057C129.571 32.7595 129.186 31.7601 128.607 30.8728C128.434 30.5857 128.193 30.346 127.905 30.175C127.617 30.0039 127.291 29.9069 126.956 29.8927C126.627 29.911 126.308 30.0101 126.026 30.181C125.745 30.352 125.51 30.5895 125.342 30.8728C124.771 31.7694 124.396 32.7765 124.242 33.8283C123.955 35.4329 123.823 37.0615 123.849 38.6913C123.824 40.2536 123.955 41.8146 124.242 43.3507Z" fill="#1928DC"/>
<path d="M144.734 26.7488V35.7434H142.668C141.915 35.7751 141.164 35.6332 140.474 35.3288C139.929 35.0419 139.512 34.56 139.306 33.9792C139.028 33.175 138.903 32.3261 138.936 31.4761V26.7488H135.031V31.4761C134.913 33.5217 135.522 35.5431 136.75 37.1835C137.896 38.5657 139.607 39.2569 141.884 39.2569H144.734V50.2043H148.647V26.7488H144.734Z" fill="#1928DC"/>
<path d="M163.363 30.1189H158.764V50.2043H154.874V30.1189H150.282V26.7488H163.363V30.1189Z" fill="#1928DC"/>
<path d="M168.923 26.7488H172.052C173.338 26.6982 174.61 27.0287 175.709 27.6988C176.676 28.349 177.427 29.2731 177.865 30.3527C178.406 31.6903 178.746 33.1003 178.875 34.5372L180.7 50.2043H176.795L175.52 39.2569H168.923V50.2043H165.018V26.7488H168.923ZM168.923 35.8867H175.136L174.955 34.5372C174.886 33.6714 174.709 32.8178 174.427 31.9963C174.228 31.4444 173.841 30.9801 173.334 30.6845C172.676 30.3723 171.95 30.2297 171.223 30.2698H168.923V35.8867Z" fill="#1928DC"/>
<path d="M196.893 26.7489C198.196 26.7177 199.482 27.0548 200.602 27.7215C201.701 28.4208 202.557 29.4425 203.053 30.6469C203.679 32.179 203.977 33.8253 203.927 35.4797C203.963 37.0498 203.684 38.6112 203.105 40.0713C202.674 41.1846 201.984 42.1795 201.092 42.974C200.475 43.5521 199.675 43.8961 198.83 43.9466C198.395 43.9745 197.96 43.9059 197.554 43.7455C197.149 43.5852 196.784 43.3372 196.486 43.0192V50.2044H192.58V26.7489H196.893ZM196.719 38.9253C196.818 39.3438 197.017 39.732 197.3 40.0562C197.393 40.1678 197.507 40.259 197.637 40.3238C197.767 40.3887 197.909 40.426 198.054 40.4332C198.395 40.4141 198.716 40.2658 198.951 40.0185C199.311 39.6357 199.57 39.1693 199.705 38.6614C199.922 37.8814 200.021 37.0732 199.999 36.2638C199.999 34.0723 199.733 32.5242 199.2 31.6195C198.975 31.2023 198.639 30.8555 198.229 30.6173C197.819 30.3792 197.352 30.2589 196.878 30.2699H196.486V37.0555C196.479 37.6864 196.557 38.3155 196.719 38.9253Z" fill="#1928DC"/>
<path d="M208.277 49.2772C207.101 48.2033 206.25 46.8217 205.819 45.2888C205.181 43.1445 204.883 40.9133 204.937 38.6766C204.884 36.3831 205.182 34.0949 205.819 31.8911C206.246 30.313 207.096 28.8817 208.277 27.7519C209.293 26.8485 210.612 26.3589 211.971 26.3797C213.337 26.357 214.662 26.8434 215.688 27.7443C216.869 28.8706 217.716 30.3 218.139 31.876C218.765 34.0817 219.058 36.3691 219.006 38.6616C219.06 40.8991 218.77 43.1317 218.146 45.2813C217.721 46.811 216.875 48.1905 215.703 49.2621C214.648 50.144 213.308 50.6129 211.934 50.5816C210.598 50.5952 209.302 50.1328 208.277 49.2772ZM209.234 43.3512C209.395 44.3544 209.771 45.3111 210.335 46.1559C210.515 46.4283 210.757 46.6539 211.042 46.8139C211.326 46.9739 211.645 47.0636 211.971 47.0757C212.944 47.0757 213.698 46.3745 214.233 44.9571C214.882 42.9297 215.165 40.8032 215.07 38.6766C215.095 37.0446 214.967 35.4139 214.685 33.8061C214.539 32.7664 214.179 31.768 213.63 30.8732C213.468 30.5775 213.23 30.3307 212.94 30.1588C212.65 29.9869 212.32 29.8962 211.983 29.8962C211.646 29.8962 211.315 29.9869 211.025 30.1588C210.735 30.3307 210.497 30.5775 210.335 30.8732C209.77 31.7725 209.395 32.7785 209.234 33.8287C208.954 35.4341 208.825 37.0623 208.85 38.6917C208.826 40.2537 208.955 41.8142 209.234 43.3512Z" fill="#1928DC"/>
<path d="M221.713 32.0567C222.674 30.3015 224.176 28.903 225.995 28.0683C228.118 27.1406 230.419 26.6902 232.735 26.7489V30.2698C229.961 30.2698 227.835 30.9735 226.357 32.3809C224.849 33.7832 224.14 35.8868 224.14 38.6764C224.14 41.466 224.894 43.3735 226.349 44.708C227.805 46.0425 229.946 46.706 232.735 46.706V50.2269C228.747 50.2269 225.656 49.2619 223.484 47.3318C221.313 45.4017 220.227 42.5291 220.227 38.699C220.145 36.3942 220.656 34.1068 221.713 32.0567Z" fill="#1928DC"/>
<path d="M234.869 32.0567C235.831 30.3015 237.332 28.903 239.151 28.0683C241.274 27.1406 243.575 26.6902 245.892 26.7489V30.2698C243.117 30.2698 240.991 30.9735 239.513 32.3809C238.005 33.7832 237.296 35.8868 237.296 38.6764C237.296 41.466 238.05 43.3735 239.506 44.708C240.961 46.0425 243.102 46.706 245.892 46.706V50.2269C241.903 50.2269 238.812 49.2619 236.641 47.3318C234.469 45.4017 233.406 42.5065 233.406 38.6764C233.32 36.3811 233.824 34.1022 234.869 32.0567Z" fill="#1928DC"/>
<path d="M251.636 26.7487V35.1251L258.286 29.5233L262.177 26.2511V50.2268H258.286V34.243L251.644 39.8449V50.2042H247.731V26.7487H251.636Z" fill="#1928DC"/>
<path d="M267.93 26.7487V35.1251L274.58 29.5233L278.471 26.2511V50.2268H274.565V34.243L267.915 39.8449V50.2042H264.01V26.7487H267.93Z" fill="#1928DC"/>
</g>
<defs>
<clipPath id="clip0_2808_19546">
<rect width="174.6" height="24.3602" fill="white" transform="translate(103.885 26.2289)"/>
</clipPath>
</defs>
</svg>
